OxygenFF.ufo
<glyph name="exclam" format="1">
  <advance width="586"/>
  <unicode hex="0021"/>
  <outline>
    <contour>
      <point x="160" y="120" type="qcurve" smooth="yes"/>
      <point x="160" y="172"/>
      <point x="232" y="252"/>
      <point x="356" y="252"/>
      <point x="426" y="174"/>
      <point x="426" y="66"/>
      <point x="356" y="-12"/>
      <point x="232" y="-12"/>
      <point x="160" y="67"/>
    </contour>
    <contour>
      <point x="391" y="1496" type="line" smooth="no"/>
      <point x="391" y="1354" type="line" smooth="no"/>
      <point x="335" y="435" type="line" smooth="no"/>
      <point x="256" y="435" type="line" smooth="no"/>
      <point x="194" y="1354" type="line" smooth="no"/>
      <point x="194" y="1496" type="line" smooth="no"/>
    </contour>
  </outline>
</glyph>
<glyph name="ampersand" format="1">
  <advance width="1477"/>
  <unicode hex="0026"/>
  <outline>
    <contour>
      <point x="441" y="839" type="qcurve" smooth="no"/>
      <point x="348" y="940"/>
      <point x="268" y="1076"/>
      <point x="268" y="1165" type="qcurve" smooth="yes"/>
      <point x="268" y="1314"/>
      <point x="479" y="1489"/>
      <point x="657" y="1489" type="qcurve" smooth="yes"/>
      <point x="884" y="1488"/>
      <point x="990" y="1352" type="qcurve" smooth="yes"/>
      <point x="1046" y="1280"/>
      <point x="1046" y="1118"/>
      <point x="994" y="1006"/>
      <point x="946" y="959" type="qcurve" smooth="yes"/>
      <point x="854" y="872"/>
      <point x="707" y="804" type="qcurve" smooth="no"/>
      <point x="1108" y="375" type="line" smooth="no"/>
      <point x="1188" y="459"/>
      <point x="1250" y="599" type="qcurve" smooth="no"/>
      <point x="1371" y="507" type="line" smooth="no"/>
      <point x="1309" y="371"/>
      <point x="1212" y="257" type="qcurve" smooth="no"/>
      <point x="1393" y="41" type="line" smooth="no"/>
      <point x="1319" y="13"/>
      <point x="1236" y="-11" type="qcurve" smooth="no"/>
      <point x="1100" y="143" type="line" smooth="no"/>
      <point x="894" y="-23"/>
      <point x="367" y="-23"/>
      <point x="104" y="198"/>
      <point x="104" y="395" type="qcurve" smooth="yes"/>
      <point x="104" y="548"/>
      <point x="277" y="756"/>
    </contour>
    <contour>
      <point x="985" y="259" type="qcurve" smooth="no"/>
      <point x="544" y="726" type="line" smooth="no"/>
      <point x="418" y="662"/>
      <point x="281" y="510"/>
      <point x="281" y="277"/>
      <point x="465" y="132"/>
      <point x="825" y="132"/>
    </contour>
    <contour>
      <point x="744" y="1345"/>
      <point x="567" y="1345"/>
      <point x="455" y="1250"/>
      <point x="455" y="1097"/>
      <point x="528" y="984"/>
      <point x="605" y="910" type="qcurve" smooth="no"/>
      <point x="800" y="1006"/>
      <point x="840" y="1087" type="qcurve" smooth="yes"/>
      <point x="858" y="1125"/>
      <point x="858" y="1171" type="qcurve" smooth="yes"/>
      <point x="858" y="1254"/>
    </contour>
  </outline>
</glyph>
<glyph name="asterisk" format="1">
  <advance width="1105"/>
  <unicode hex="002a"/>
  <outline>
    <contour>
      <point x="901" y="675" type="line" smooth="no"/>
      <point x="747" y="581" type="line" smooth="no"/>
      <point x="547" y="943" type="line" smooth="no"/>
      <point x="358" y="581" type="line" smooth="no"/>
      <point x="202" y="675" type="line" smooth="no"/>
      <point x="450" y="1008" type="line" smooth="no"/>
      <point x="87" y="1091" type="line" smooth="no"/>
      <point x="137" y="1262" type="line" smooth="no"/>
      <point x="494" y="1111" type="line" smooth="no"/>
      <point x="457" y="1522" type="line" smooth="no"/>
      <point x="643" y="1522" type="line" smooth="no"/>
      <point x="607" y="1111" type="line" smooth="no"/>
      <point x="966" y="1262" type="line" smooth="no"/>
      <point x="1016" y="1091" type="line" smooth="no"/>
      <point x="649" y="1008" type="line" smooth="no"/>
    </contour>
  </outline>
</glyph>
<glyph name="zero" format="1">
  <advance width="1241"/>
  <unicode hex="0030"/>
  <outline>
    <contour>
      <point x="622" y="-23" type="qcurve" smooth="no"/>
      <point x="489" y="-23"/>
      <point x="389" y="35" type="qcurve" smooth="yes"/>
      <point x="288" y="94"/>
      <point x="228" y="198" type="qcurve" smooth="yes"/>
      <point x="108" y="404"/>
      <point x="109" y="741" type="qcurve" smooth="yes"/>
      <point x="109" y="1218"/>
      <point x="335" y="1406" type="qcurve" smooth="yes"/>
      <point x="452" y="1504"/>
      <point x="622" y="1504" type="qcurve" smooth="yes"/>
      <point x="924" y="1504"/>
      <point x="1052" y="1205" type="qcurve" smooth="yes"/>
      <point x="1132" y="1019"/>
      <point x="1132" y="741" type="qcurve" smooth="yes"/>
      <point x="1132" y="403"/>
      <point x="1014" y="197" type="qcurve" smooth="yes"/>
      <point x="888" y="-23"/>
    </contour>
    <contour>
      <point x="520" y="1353"/>
      <point x="447" y="1274" type="qcurve" smooth="yes"/>
      <point x="301" y="1116"/>
      <point x="301" y="747" type="qcurve" smooth="yes"/>
      <point x="301" y="372"/>
      <point x="447" y="210" type="qcurve" smooth="yes"/>
      <point x="520" y="130"/>
      <point x="724" y="130"/>
      <point x="797" y="210" type="qcurve" smooth="yes"/>
      <point x="943" y="371"/>
      <point x="943" y="747" type="qcurve" smooth="yes"/>
      <point x="943" y="1116"/>
      <point x="797" y="1274" type="qcurve" smooth="yes"/>
      <point x="724" y="1353"/>
    </contour>
  </outline>
</glyph>
<glyph name="one" format="1">
  <advance width="626"/>
  <unicode hex="0031"/>
  <outline>
    <contour>
      <point x="302" y="1479" type="qcurve" smooth="no"/>
      <point x="461" y="1479" type="line" smooth="no"/>
      <point x="461" y="0" type="line" smooth="no"/>
      <point x="284" y="0" type="line" smooth="no"/>
      <point x="284" y="1294" type="line" smooth="no"/>
      <point x="183" y="1228"/>
      <point x="37" y="1181" type="qcurve" smooth="no"/>
      <point x="37" y="1348" type="line" smooth="no"/>
      <point x="53" y="1355"/>
      <point x="102" y="1376" type="qcurve" smooth="yes"/>
      <point x="152" y="1397"/>
      <point x="176" y="1408" type="qcurve" smooth="yes"/>
      <point x="248" y="1441"/>
    </contour>
  </outline>
</glyph>
<glyph name="two" format="1">
  <advance width="1116"/>
  <unicode hex="0032"/>
  <outline>
    <contour>
      <point x="536" y="1353" type="qcurve" smooth="yes"/>
      <point x="324" y="1353"/>
      <point x="202" y="1225" type="qcurve" smooth="no"/>
      <point x="144" y="1375" type="line" smooth="no"/>
      <point x="282" y="1504"/>
      <point x="548" y="1504" type="qcurve" smooth="yes"/>
      <point x="752" y="1504"/>
      <point x="994" y="1283"/>
      <point x="994" y="1099" type="qcurve" smooth="yes"/>
      <point x="994" y="977"/>
      <point x="858" y="743"/>
      <point x="728" y="605" type="qcurve" smooth="yes"/>
      <point x="306" y="154" type="line" smooth="no"/>
      <point x="999" y="154" type="line" smooth="no"/>
      <point x="988" y="0" type="line" smooth="no"/>
      <point x="113" y="0" type="line" smooth="no"/>
      <point x="90" y="164" type="line" smooth="no"/>
      <point x="607" y="738" type="line" smooth="yes"/>
      <point x="740" y="886"/>
      <point x="759" y="929" type="qcurve" smooth="yes"/>
      <point x="801" y="1020"/>
      <point x="801" y="1087" type="qcurve" smooth="yes"/>
      <point x="801" y="1213"/>
      <point x="663" y="1353"/>
    </contour>
  </outline>
</glyph>
<glyph name="three" format="1">
  <advance width="1103"/>
  <unicode hex="0033"/>
  <outline>
    <contour>
      <point x="491" y="1352" type="qcurve" smooth="yes"/>
      <point x="291" y="1352"/>
      <point x="159" y="1248" type="qcurve" smooth="no"/>
      <point x="104" y="1393" type="line" smooth="no"/>
      <point x="251" y="1504"/>
      <point x="529" y="1504" type="qcurve" smooth="yes"/>
      <point x="697" y="1504"/>
      <point x="823" y="1410" type="qcurve" smooth="yes"/>
      <point x="883" y="1366"/>
      <point x="953" y="1225"/>
      <point x="953" y="1139" type="qcurve" smooth="yes"/>
      <point x="953" y="1001"/>
      <point x="817" y="822"/>
      <point x="693" y="784" type="qcurve" smooth="no"/>
      <point x="831" y="754"/>
      <point x="989" y="557"/>
      <point x="989" y="276"/>
      <point x="860" y="80"/>
      <point x="635" y="-23"/>
      <point x="358" y="-23"/>
      <point x="152" y="47"/>
      <point x="104" y="92" type="qcurve" smooth="no"/>
      <point x="159" y="238" type="line" smooth="no"/>
      <point x="299" y="128"/>
      <point x="492" y="128" type="qcurve" smooth="yes"/>
      <point x="640" y="128"/>
      <point x="816" y="275"/>
      <point x="816" y="408" type="qcurve" smooth="yes"/>
      <point x="816" y="614"/>
      <point x="648" y="674" type="qcurve" smooth="yes"/>
      <point x="547" y="710"/>
      <point x="379" y="710" type="qcurve" smooth="yes"/>
      <point x="320" y="710" type="line" smooth="no"/>
      <point x="320" y="857" type="line" smooth="no"/>
      <point x="369" y="857" type="line" smooth="no"/>
      <point x="600" y="864"/>
      <point x="686" y="932" type="qcurve" smooth="yes"/>
      <point x="764" y="994"/>
      <point x="763" y="1117" type="qcurve" smooth="yes"/>
      <point x="763" y="1352"/>
    </contour>
  </outline>
</glyph>
<glyph name="five" format="1">
  <advance width="1177"/>
  <unicode hex="0035"/>
  <outline>
    <contour>
      <point x="1004" y="1479" type="line" smooth="no"/>
      <point x="990" y="1315" type="line" smooth="no"/>
      <point x="379" y="1315" type="line" smooth="no"/>
      <point x="369" y="1031"/>
      <point x="364" y="861" type="qcurve" smooth="no"/>
      <point x="477" y="933"/>
      <point x="598.5" y="933" type="qcurve" smooth="yes"/>
      <point x="720" y="934"/>
      <point x="808" y="898" type="qcurve" smooth="yes"/>
      <point x="894" y="862"/>
      <point x="950" y="800" type="qcurve" smooth="yes"/>
      <point x="1064" y="673"/>
      <point x="1064" y="250"/>
      <point x="773" y="-23"/>
      <point x="272" y="-23"/>
      <point x="121" y="114" type="qcurve" smooth="no"/>
      <point x="186" y="255" type="line" smooth="no"/>
      <point x="334" y="139"/>
      <point x="693" y="139"/>
      <point x="883" y="325"/>
      <point x="883" y="609"/>
      <point x="723" y="776"/>
      <point x="427" y="776"/>
      <point x="337" y="677" type="qcurve" smooth="no"/>
      <point x="198" y="696" type="line" smooth="no"/>
      <point x="237" y="1479" type="line" smooth="no"/>
    </contour>
  </outline>
</glyph>
<glyph name="six" format="1">
  <advance width="1199"/>
  <unicode hex="0036"/>
  <outline>
    <contour>
      <point x="412" y="861" type="line" smooth="no"/>
      <point x="525" y="921"/>
      <point x="763" y="921"/>
      <point x="977" y="802"/>
      <point x="1107" y="583"/>
      <point x="1107" y="449" type="qcurve" smooth="yes"/>
      <point x="1107" y="245"/>
      <point x="832" y="-23"/>
      <point x="607" y="-23" type="qcurve" smooth="yes"/>
      <point x="490" y="-24"/>
      <point x="394" y="16" type="qcurve" smooth="yes"/>
      <point x="296" y="56"/>
      <point x="234" y="124" type="qcurve" smooth="yes"/>
      <point x="102" y="266"/>
      <point x="103" y="472" type="qcurve" smooth="yes"/>
      <point x="103" y="635"/>
      <point x="222" y="892"/>
      <point x="378" y="1089" type="qcurve" smooth="no"/>
      <point x="483" y="1218"/>
      <point x="644" y="1405" type="qcurve" smooth="no"/>
      <point x="707" y="1479" type="line" smooth="no"/>
      <point x="938" y="1479" type="line" smooth="no"/>
    </contour>
    <contour>
      <point x="292" y="453" type="qcurve" smooth="yes"/>
      <point x="292" y="262"/>
      <point x="430" y="174" type="qcurve" smooth="yes"/>
      <point x="502" y="128"/>
      <point x="601" y="129" type="qcurve" smooth="yes"/>
      <point x="749" y="129"/>
      <point x="918" y="311"/>
      <point x="918" y="588"/>
      <point x="749" y="771"/>
      <point x="444" y="771"/>
      <point x="292" y="593"/>
    </contour>
  </outline>
</glyph>
<glyph name="seven" format="1">
  <advance width="1052"/>
  <unicode hex="0037"/>
  <outline>
    <contour>
      <point x="261" y="0" type="line" smooth="no"/>
      <point x="775" y="1324" type="line" smooth="no"/>
      <point x="100" y="1324" type="line" smooth="no"/>
      <point x="111" y="1479" type="line" smooth="no"/>
      <point x="978" y="1479" type="line" smooth="no"/>
      <point x="978" y="1343" type="line" smooth="no"/>
      <point x="443" y="0" type="line" smooth="no"/>
    </contour>
  </outline>
</glyph>
<glyph name="eight" format="1">
  <advance width="1182"/>
  <unicode hex="0038"/>
  <outline>
    <contour>
      <point x="1049" y="1136" type="qcurve" smooth="yes"/>
      <point x="1049" y="879"/>
      <point x="791" y="777" type="qcurve" smooth="no"/>
      <point x="926" y="730"/>
      <point x="1080" y="524"/>
      <point x="1080" y="385" type="qcurve" smooth="yes"/>
      <point x="1080" y="193"/>
      <point x="803" y="-23"/>
      <point x="594" y="-23" type="qcurve" smooth="yes"/>
      <point x="305" y="-23"/>
      <point x="171" y="162" type="qcurve" smooth="yes"/>
      <point x="103" y="256"/>
      <point x="103" y="525"/>
      <point x="267" y="730"/>
      <point x="414" y="777" type="qcurve" smooth="no"/>
      <point x="134" y="876"/>
      <point x="134" y="1136" type="qcurve" smooth="yes"/>
      <point x="134" y="1308"/>
      <point x="390" y="1504"/>
      <point x="797" y="1504"/>
      <point x="1049" y="1309"/>
    </contour>
    <contour>
      <point x="594" y="692" type="qcurve" smooth="no"/>
      <point x="451" y="660"/>
      <point x="279" y="511"/>
      <point x="279" y="274"/>
      <point x="457" y="129"/>
      <point x="731" y="129"/>
      <point x="904" y="274"/>
      <point x="904" y="511"/>
      <point x="736" y="660"/>
    </contour>
    <contour>
      <point x="711" y="1353"/>
      <point x="476" y="1353"/>
      <point x="311" y="1240"/>
      <point x="311" y="1140" type="qcurve" smooth="yes"/>
      <point x="311" y="905"/>
      <point x="594" y="842" type="qcurve" smooth="no"/>
      <point x="873" y="905"/>
      <point x="873" y="1140" type="qcurve" smooth="yes"/>
      <point x="873" y="1240"/>
    </contour>
  </outline>
</glyph>
<glyph name="nine" format="1">
  <advance width="1165"/>
  <unicode hex="0039"/>
  <outline>
    <contour>
      <point x="781" y="638" type="line" smooth="no"/>
      <point x="668" y="578"/>
      <point x="429" y="578"/>
      <point x="216" y="689"/>
      <point x="86" y="899"/>
      <point x="86" y="1033" type="qcurve" smooth="yes"/>
      <point x="86" y="1236"/>
      <point x="366" y="1504"/>
      <point x="592" y="1504" type="qcurve" smooth="yes"/>
      <point x="748" y="1504"/>
      <point x="862" y="1439" type="qcurve" smooth="yes"/>
      <point x="1090" y="1310"/>
      <point x="1090" y="1022" type="qcurve" smooth="yes"/>
      <point x="1090" y="879"/>
      <point x="992" y="647"/>
      <point x="872" y="484" type="qcurve" smooth="no"/>
      <point x="776" y="361"/>
      <point x="549" y="94" type="qcurve" smooth="no"/>
      <point x="470" y="0" type="line" smooth="no"/>
      <point x="250" y="0" type="line" smooth="no"/>
    </contour>
    <contour>
      <point x="901" y="902"/>
      <point x="901" y="1178"/>
      <point x="746" y="1353"/>
      <point x="449" y="1353"/>
      <point x="275" y="1170"/>
      <point x="275" y="896"/>
      <point x="443" y="728"/>
      <point x="750" y="728"/>
    </contour>
  </outline>
</glyph>
<glyph name="question" format="1">
  <advance width="865"/>
  <unicode hex="003f"/>
  <outline>
    <contour>
      <point x="404" y="435" type="qcurve" smooth="no"/>
      <point x="317" y="435" type="line" smooth="no"/>
      <point x="317" y="552"/>
      <point x="418" y="744" type="qcurve" smooth="yes"/>
      <point x="460" y="824"/>
      <point x="502" y="902" type="qcurve" smooth="yes"/>
      <point x="602" y="1090"/>
      <point x="602" y="1185" type="qcurve" smooth="yes"/>
      <point x="602" y="1281"/>
      <point x="541" y="1327" type="qcurve" smooth="yes"/>
      <point x="481" y="1373"/>
      <point x="248" y="1373"/>
      <point x="118" y="1292" type="qcurve" smooth="no"/>
      <point x="73" y="1427" type="line" smooth="no"/>
      <point x="196" y="1524"/>
      <point x="566" y="1524"/>
      <point x="765" y="1353"/>
      <point x="765" y="1200" type="qcurve" smooth="yes"/>
      <point x="765" y="1056"/>
      <point x="680" y="908" type="qcurve" smooth="yes"/>
      <point x="640" y="838"/>
      <point x="596" y="772" type="qcurve" smooth="yes"/>
      <point x="472" y="586"/>
    </contour>
    <contour>
      <point x="242" y="173"/>
      <point x="313" y="252"/>
      <point x="438" y="252"/>
      <point x="508" y="174"/>
      <point x="508" y="66"/>
      <point x="438" y="-12"/>
      <point x="313" y="-12"/>
      <point x="242" y="67"/>
    </contour>
  </outline>
</glyph>
<glyph name="C" format="1">
  <advance width="1290"/>
  <unicode hex="0043"/>
  <outline>
    <contour>
      <point x="1173" y="1253" type="line" smooth="no"/>
      <point x="1009" y="1352"/>
      <point x="656" y="1352"/>
      <point x="536" y="1271" type="qcurve" smooth="yes"/>
      <point x="298" y="1111"/>
      <point x="297" y="738" type="qcurve" smooth="yes"/>
      <point x="297" y="468"/>
      <point x="425" y="304" type="qcurve" smooth="yes"/>
      <point x="560" y="131"/>
      <point x="827" y="130" type="qcurve" smooth="yes"/>
      <point x="998" y="130"/>
      <point x="1181" y="219" type="qcurve" smooth="no"/>
      <point x="1210" y="72" type="line" smooth="no"/>
      <point x="1061" y="-22"/>
      <point x="807" y="-22" type="qcurve" smooth="yes"/>
      <point x="470" y="-22"/>
      <point x="288" y="190" type="qcurve" smooth="yes"/>
      <point x="112" y="397"/>
      <point x="112" y="745" type="qcurve" smooth="yes"/>
      <point x="112" y="1082"/>
      <point x="300" y="1292" type="qcurve" smooth="yes"/>
      <point x="390" y="1392"/>
      <point x="657" y="1504"/>
      <point x="821" y="1504" type="qcurve" smooth="yes"/>
      <point x="1070" y="1504"/>
      <point x="1241" y="1394" type="qcurve" smooth="no"/>
    </contour>
  </outline>
</glyph>
<glyph name="G" format="1">
  <advance width="1461"/>
  <unicode hex="0047"/>
  <outline>
    <contour>
      <point x="970" y="-22"/>
      <point x="650" y="-22"/>
      <point x="382" y="90"/>
      <point x="294" y="192" type="qcurve" smooth="yes"/>
      <point x="114" y="401"/>
      <point x="113" y="738" type="qcurve" smooth="yes"/>
      <point x="113" y="962"/>
      <point x="283" y="1306"/>
      <point x="619" y="1504"/>
      <point x="1104" y="1504"/>
      <point x="1297" y="1388" type="qcurve" smooth="no"/>
      <point x="1231" y="1245" type="line" smooth="no"/>
      <point x="1045" y="1352"/>
      <point x="851" y="1352" type="qcurve" smooth="yes"/>
      <point x="580" y="1352"/>
      <point x="436" y="1176" type="qcurve" smooth="yes"/>
      <point x="298" y="1007"/>
      <point x="297" y="456"/>
      <point x="578" y="129"/>
      <point x="852" y="129" type="qcurve" smooth="yes"/>
      <point x="1008" y="129"/>
      <point x="1169" y="192" type="qcurve" smooth="no"/>
      <point x="1169" y="614" type="line" smooth="no"/>
      <point x="820" y="614" type="line" smooth="no"/>
      <point x="826" y="765" type="line" smooth="no"/>
      <point x="1331" y="765" type="line" smooth="no"/>
      <point x="1331" y="89" type="line" smooth="no"/>
      <point x="1205" y="29"/>
    </contour>
  </outline>
</glyph>
<glyph name="J" format="1">
  <advance width="550"/>
  <unicode hex="004a"/>
  <outline>
    <contour>
      <point x="226" y="181" type="qcurve" smooth="yes"/>
      <point x="226" y="1479" type="line" smooth="no"/>
      <point x="403" y="1479" type="line" smooth="no"/>
      <point x="403" y="241" type="line" smooth="yes"/>
      <point x="404" y="10"/>
      <point x="362" y="-68" type="qcurve" smooth="yes"/>
      <point x="318" y="-150"/>
      <point x="246" y="-178" type="qcurve" smooth="yes"/>
      <point x="157" y="-214"/>
      <point x="16" y="-214" type="qcurve" smooth="yes"/>
      <point x="-19" y="-214" type="line" smooth="no"/>
      <point x="-40" y="-72" type="line" smooth="no"/>
      <point x="34" y="-72" type="line" smooth="yes"/>
      <point x="180" y="-72"/>
      <point x="210" y="29" type="qcurve" smooth="yes"/>
      <point x="226" y="82"/>
    </contour>
  </outline>
</glyph>
<glyph name="O" format="1">
  <advance width="1626"/>
  <unicode hex="004f"/>
  <outline>
    <contour>
      <point x="296" y="1031"/>
      <point x="296" y="454"/>
      <point x="558" y="129"/>
      <point x="1070" y="129"/>
      <point x="1329" y="453"/>
      <point x="1329" y="1031"/>
      <point x="1068" y="1353"/>
      <point x="562" y="1353"/>
    </contour>
    <contour>
      <point x="1334" y="190" type="qcurve" smooth="yes"/>
      <point x="1246" y="90"/>
      <point x="980" y="-22"/>
      <point x="814" y="-22" type="qcurve" smooth="yes"/>
      <point x="590" y="-22"/>
      <point x="430" y="74" type="qcurve" smooth="yes"/>
      <point x="112" y="265"/>
      <point x="112" y="740" type="qcurve" smooth="yes"/>
      <point x="112" y="1095"/>
      <point x="482" y="1504"/>
      <point x="1143" y="1504"/>
      <point x="1514" y="1092"/>
      <point x="1514" y="397"/>
    </contour>
  </outline>
</glyph>
<glyph name="P" format="1">
  <advance width="1159"/>
  <unicode hex="0050"/>
  <outline>
    <contour>
      <point x="323" y="0" type="line" smooth="no"/>
      <point x="146" y="0" type="line" smooth="no"/>
      <point x="146" y="1479" type="line" smooth="no"/>
      <point x="628" y="1479" type="line" smooth="yes"/>
      <point x="848" y="1479"/>
      <point x="985" y="1386" type="qcurve" smooth="yes"/>
      <point x="1130" y="1287"/>
      <point x="1130" y="1076" type="qcurve" smooth="yes"/>
      <point x="1130" y="810"/>
      <point x="957" y="706" type="qcurve" smooth="yes"/>
      <point x="823" y="625"/>
      <point x="567" y="625" type="qcurve" smooth="yes"/>
      <point x="464" y="625"/>
      <point x="323" y="638" type="qcurve" smooth="no"/>
    </contour>
    <contour>
      <point x="323" y="780" type="line" smooth="no"/>
      <point x="516" y="778"/>
      <point x="682" y="778"/>
      <point x="822" y="814"/>
      <point x="860" y="840" type="qcurve" smooth="yes"/>
      <point x="896" y="868"/>
      <point x="918" y="910" type="qcurve" smooth="yes"/>
      <point x="950" y="972"/>
      <point x="950" y="1200"/>
      <point x="779" y="1320"/>
      <point x="632" y="1320" type="qcurve" smooth="yes"/>
      <point x="323" y="1320" type="line" smooth="no"/>
    </contour>
  </outline>
</glyph>
<glyph name="R" format="1">
  <advance width="1339"/>
  <unicode hex="0052"/>
  <outline>
    <contour>
      <point x="324" y="841" type="line" smooth="no"/>
      <point x="692" y="837" type="line" smooth="no"/>
      <point x="940" y="836"/>
      <point x="1002" y="946" type="qcurve" smooth="yes"/>
      <point x="1032" y="998"/>
      <point x="1032" y="1102" type="qcurve" smooth="yes"/>
      <point x="1032" y="1324"/>
      <point x="719" y="1324" type="qcurve" smooth="yes"/>
      <point x="323" y="1324" type="line" smooth="no"/>
    </contour>
    <contour>
      <point x="1272" y="0" type="line" smooth="no"/>
      <point x="1072" y="0" type="line" smooth="no"/>
      <point x="868" y="464" type="line" smooth="yes"/>
      <point x="785" y="651"/>
      <point x="762" y="689" type="qcurve" smooth="no"/>
      <point x="689" y="684"/>
      <point x="589" y="684" type="qcurve" smooth="no"/>
      <point x="324" y="692" type="line" smooth="no"/>
      <point x="324" y="0" type="line" smooth="no"/>
      <point x="147" y="0" type="line" smooth="no"/>
      <point x="146" y="1479" type="line" smooth="no"/>
      <point x="619" y="1479" type="line" smooth="yes"/>
      <point x="880" y="1480"/>
      <point x="998" y="1432" type="qcurve" smooth="yes"/>
      <point x="1102" y="1390"/>
      <point x="1148" y="1313" type="qcurve" smooth="yes"/>
      <point x="1200" y="1225"/>
      <point x="1201" y="954"/>
      <point x="1055" y="762"/>
      <point x="920" y="724" type="qcurve" smooth="no"/>
      <point x="920" y="722"/>
      <point x="940" y="688" type="qcurve" smooth="yes"/>
      <point x="1004" y="579"/>
      <point x="1030" y="522" type="qcurve" smooth="yes"/>
    </contour>
  </outline>
</glyph>
<glyph name="S" format="1">
  <advance width="1227"/>
  <unicode hex="0053"/>
  <outline>
    <contour>
      <point x="146" y="244" type="line" smooth="no"/>
      <point x="377" y="130"/>
      <point x="641" y="130" type="qcurve" smooth="yes"/>
      <point x="966" y="130"/>
      <point x="966" y="417" type="qcurve" smooth="yes"/>
      <point x="966" y="513"/>
      <point x="863" y="632"/>
      <point x="727" y="666" type="qcurve" smooth="yes"/>
      <point x="433" y="740" type="line" smooth="yes"/>
      <point x="96" y="825"/>
      <point x="96" y="1100" type="qcurve" smooth="yes"/>
      <point x="96" y="1305"/>
      <point x="386" y="1504"/>
      <point x="642" y="1504" type="qcurve" smooth="yes"/>
      <point x="918" y="1504"/>
      <point x="1089" y="1398" type="qcurve" smooth="no"/>
      <point x="1039" y="1257" type="line" smooth="no"/>
      <point x="971" y="1295"/>
      <point x="750" y="1353"/>
      <point x="638" y="1353" type="qcurve" smooth="yes"/>
      <point x="276" y="1353"/>
      <point x="276" y="1112" type="qcurve" smooth="yes"/>
      <point x="276" y="1027"/>
      <point x="387" y="924"/>
      <point x="498" y="897" type="qcurve" smooth="yes"/>
      <point x="779" y="829" type="line" smooth="yes"/>
      <point x="959" y="786"/>
      <point x="1145" y="597"/>
      <point x="1145" y="423" type="qcurve" smooth="yes"/>
      <point x="1145" y="201"/>
      <point x="868" y="-23"/>
      <point x="630" y="-23" type="qcurve" smooth="yes"/>
      <point x="452" y="-23"/>
      <point x="175" y="50"/>
      <point x="94" y="100" type="qcurve" smooth="no"/>
    </contour>
  </outline>
</glyph>
<glyph name="V" format="1">
  <advance width="1242"/>
  <unicode hex="0056"/>
  <outline>
    <contour>
      <point x="620" y="196" type="qcurve" smooth="no"/>
      <point x="640" y="295"/>
      <point x="1062" y="1479" type="qcurve" smooth="no"/>
      <point x="1247" y="1479" type="line" smooth="no"/>
      <point x="710" y="0" type="line" smooth="no"/>
      <point x="530" y="0" type="line" smooth="no"/>
      <point x="-5" y="1479" type="line" smooth="no"/>
      <point x="180" y="1479" type="line" smooth="no"/>
      <point x="509" y="541" type="line" smooth="yes"/>
      <point x="573" y="358"/>
    </contour>
  </outline>
</glyph>
<glyph name="b" format="1">
  <advance width="1215"/>
  <unicode hex="0062"/>
  <outline>
    <contour>
      <point x="642" y="981" type="qcurve" smooth="yes"/>
      <point x="483" y="981"/>
      <point x="314" y="762"/>
      <point x="314" y="550" type="qcurve" smooth="yes"/>
      <point x="314" y="116"/>
      <point x="641" y="116" type="qcurve" smooth="yes"/>
      <point x="874" y="116"/>
      <point x="934" y="380" type="qcurve" smooth="yes"/>
      <point x="952" y="456"/>
      <point x="951" y="675"/>
      <point x="892" y="863"/>
      <point x="750" y="981"/>
    </contour>
    <contour>
      <point x="311" y="940" type="qcurve" smooth="no"/>
      <point x="438" y="1120"/>
      <point x="680" y="1120" type="qcurve" smooth="yes"/>
      <point x="806" y="1120"/>
      <point x="911" y="1046" type="qcurve" smooth="yes"/>
      <point x="1123" y="898"/>
      <point x="1123" y="554" type="qcurve" smooth="yes"/>
      <point x="1124" y="200"/>
      <point x="912" y="52" type="qcurve" smooth="yes"/>
      <point x="806" y="-22"/>
      <point x="676" y="-23" type="qcurve" smooth="yes"/>
      <point x="437" y="-23"/>
      <point x="308" y="152" type="qcurve" smooth="no"/>
      <point x="291" y="0" type="line" smooth="no"/>
      <point x="148" y="0" type="line" smooth="no"/>
      <point x="148" y="1523" type="line" smooth="no"/>
      <point x="315" y="1533" type="line" smooth="no"/>
      <point x="315" y="1170" type="line" smooth="yes"/>
      <point x="315" y="1036"/>
    </contour>
  </outline>
</glyph>
<glyph name="e" format="1">
  <advance width="1108"/>
  <unicode hex="0065"/>
  <outline>
    <contour>
      <point x="446" y="982"/>
      <point x="284" y="801"/>
      <point x="270" y="644" type="qcurve" smooth="no"/>
      <point x="849" y="644" type="line" smooth="no"/>
      <point x="849" y="807"/>
      <point x="702" y="982"/>
    </contour>
    <contour>
      <point x="1019" y="608" type="qcurve" smooth="no"/>
      <point x="1018" y="518" type="line" smooth="no"/>
      <point x="265" y="518" type="line" smooth="no"/>
      <point x="268" y="331"/>
      <point x="455" y="122"/>
      <point x="787" y="122"/>
      <point x="962" y="214" type="qcurve" smooth="no"/>
      <point x="988" y="79" type="line" smooth="no"/>
      <point x="821" y="-23"/>
      <point x="368" y="-23"/>
      <point x="93" y="281"/>
      <point x="93" y="800"/>
      <point x="226" y="958" type="qcurve" smooth="yes"/>
      <point x="360" y="1116"/>
      <point x="570" y="1118" type="qcurve" smooth="yes"/>
      <point x="574" y="1119" type="line" smooth="yes"/>
      <point x="782" y="1118"/>
      <point x="900" y="980" type="qcurve" smooth="yes"/>
      <point x="1020" y="840"/>
    </contour>
  </outline>
</glyph>
<glyph name="l" format="1">
  <advance width="569"/>
  <unicode hex="006c"/>
  <outline>
    <contour>
      <point x="438" y="-20" type="qcurve" smooth="yes"/>
      <point x="278" y="-20"/>
      <point x="145" y="152"/>
      <point x="145" y="365" type="qcurve" smooth="yes"/>
      <point x="145" y="1523" type="line" smooth="no"/>
      <point x="311" y="1533" type="line" smooth="no"/>
      <point x="311" y="431" type="line" smooth="yes"/>
      <point x="311" y="232"/>
      <point x="336" y="182" type="qcurve" smooth="yes"/>
      <point x="360" y="134"/>
      <point x="410" y="124" type="qcurve" smooth="yes"/>
      <point x="436" y="118"/>
      <point x="508" y="118"/>
      <point x="602" y="130" type="qcurve" smooth="no"/>
      <point x="611" y="-3" type="line" smooth="no"/>
      <point x="508" y="-20"/>
    </contour>
  </outline>
</glyph>
<glyph name="p" format="1">
  <advance width="1201"/>
  <unicode hex="0070"/>
  <outline>
    <contour>
      <point x="143" y="-476" type="line" smooth="no"/>
      <point x="143" y="1097" type="line" smooth="no"/>
      <point x="290" y="1097" type="line" smooth="no"/>
      <point x="306" y="948" type="line" smooth="no"/>
      <point x="450" y="1120"/>
      <point x="652" y="1120" type="qcurve" smooth="yes"/>
      <point x="802" y="1120"/>
      <point x="906" y="1045" type="qcurve" smooth="yes"/>
      <point x="1109" y="899"/>
      <point x="1109" y="543" type="qcurve" smooth="yes"/>
      <point x="1109" y="379"/>
      <point x="1001" y="124"/>
      <point x="792" y="-23"/>
      <point x="546" y="-23"/>
      <point x="360" y="72"/>
      <point x="304" y="150" type="qcurve" smooth="no"/>
      <point x="310" y="42"/>
      <point x="310" y="-60" type="qcurve" smooth="yes"/>
      <point x="310" y="-465" type="line" smooth="no"/>
    </contour>
    <contour>
      <point x="937" y="737"/>
      <point x="779" y="978"/>
      <point x="627" y="978" type="qcurve" smooth="yes"/>
      <point x="309" y="978"/>
      <point x="309" y="567" type="qcurve" smooth="yes"/>
      <point x="309" y="344"/>
      <point x="458" y="118"/>
      <point x="782" y="118"/>
      <point x="937" y="369"/>
    </contour>
  </outline>
</glyph>
<glyph name="q" format="1">
  <advance width="1204"/>
  <unicode hex="0071"/>
  <outline>
    <contour>
      <point x="899" y="159" type="qcurve" smooth="no"/>
      <point x="778" y="-23"/>
      <point x="533" y="-23" type="qcurve" smooth="yes"/>
      <point x="404" y="-23"/>
      <point x="300" y="51" type="qcurve" smooth="yes"/>
      <point x="92" y="199"/>
      <point x="92" y="541" type="qcurve" smooth="yes"/>
      <point x="92" y="896"/>
      <point x="302" y="1045" type="qcurve" smooth="yes"/>
      <point x="408" y="1120"/>
      <point x="556" y="1120" type="qcurve" smooth="yes"/>
      <point x="761" y="1120"/>
      <point x="901" y="942" type="qcurve" smooth="no"/>
      <point x="913" y="1097" type="line" smooth="no"/>
      <point x="1061" y="1097" type="line" smooth="no"/>
      <point x="1061" y="-466" type="line" smooth="no"/>
      <point x="894" y="-476" type="line" smooth="no"/>
      <point x="894" y="11" type="line" smooth="yes"/>
      <point x="894" y="84"/>
    </contour>
    <contour>
      <point x="814" y="225" type="qcurve" smooth="yes"/>
      <point x="892" y="330"/>
      <point x="894" y="540" type="qcurve" smooth="yes"/>
      <point x="894" y="545" type="line" smooth="yes"/>
      <point x="894" y="752"/>
      <point x="818" y="863" type="qcurve" smooth="yes"/>
      <point x="741" y="976"/>
      <point x="569" y="976" type="qcurve" smooth="yes"/>
      <point x="464" y="976"/>
      <point x="394" y="916" type="qcurve" smooth="yes"/>
      <point x="264" y="806"/>
      <point x="264" y="547" type="qcurve" smooth="yes"/>
      <point x="264" y="360"/>
      <point x="335" y="244" type="qcurve" smooth="yes"/>
      <point x="411" y="120"/>
      <point x="736" y="121"/>
    </contour>
  </outline>
</glyph>
<glyph name="r" format="1">
  <advance width="743"/>
  <unicode hex="0072"/>
  <outline>
    <contour>
      <point x="630" y="1107" type="qcurve" smooth="yes"/>
      <point x="675" y="1107"/>
      <point x="712" y="1101" type="qcurve" smooth="no"/>
      <point x="706" y="947" type="line" smooth="no"/>
      <point x="660" y="955"/>
      <point x="626" y="955" type="qcurve" smooth="yes"/>
      <point x="486" y="955"/>
      <point x="311" y="760"/>
      <point x="311" y="616" type="qcurve" smooth="yes"/>
      <point x="311" y="0" type="line" smooth="no"/>
      <point x="144" y="0" type="line" smooth="no"/>
      <point x="143" y="1010"/>
      <point x="143" y="1097" type="qcurve" smooth="no"/>
      <point x="282" y="1097" type="line" smooth="no"/>
      <point x="298" y="900" type="line" smooth="no"/>
      <point x="355" y="993"/>
      <point x="531" y="1107"/>
    </contour>
  </outline>
</glyph>
<glyph name="s" format="1">
  <advance width="953"/>
  <unicode hex="0073"/>
  <outline>
    <contour>
      <point x="110" y="63" type="qcurve" smooth="no"/>
      <point x="131" y="204" type="line" smooth="no"/>
      <point x="298" y="115"/>
      <point x="459" y="115" type="qcurve" smooth="yes"/>
      <point x="703" y="115"/>
      <point x="710" y="287" type="qcurve" smooth="no"/>
      <point x="710" y="360"/>
      <point x="606" y="444"/>
      <point x="454" y="496" type="qcurve" smooth="no"/>
      <point x="371" y="525" type="line" smooth="no"/>
      <point x="228" y="573"/>
      <point x="166" y="644" type="qcurve" smooth="yes"/>
      <point x="104" y="716"/>
      <point x="103" y="834" type="qcurve" smooth="yes"/>
      <point x="102" y="951"/>
      <point x="206" y="1035" type="qcurve" smooth="yes"/>
      <point x="310" y="1120"/>
      <point x="676" y="1120"/>
      <point x="829" y="1048" type="qcurve" smooth="no"/>
      <point x="780" y="920" type="line" smooth="no"/>
      <point x="625" y="984"/>
      <point x="385" y="984"/>
      <point x="266" y="901"/>
      <point x="266" y="762"/>
      <point x="352" y="694"/>
      <point x="514" y="638"/>
      <point x="564" y="622" type="qcurve" smooth="yes"/>
      <point x="730" y="568"/>
      <point x="799" y="494" type="qcurve" smooth="yes"/>
      <point x="867" y="422"/>
      <point x="867" y="286" type="qcurve" smooth="yes"/>
      <point x="867" y="144"/>
      <point x="759" y="60" type="qcurve" smooth="yes"/>
      <point x="652" y="-24"/>
      <point x="244" y="-23"/>
    </contour>
  </outline>
</glyph>
<glyph name="u" format="1">
  <advance width="1100"/>
  <unicode hex="0075"/>
  <outline>
    <contour>
      <point x="105" y="366" type="qcurve" smooth="yes"/>
      <point x="105" y="1097" type="line" smooth="no"/>
      <point x="273" y="1097" type="line" smooth="no"/>
      <point x="273" y="364" type="line" smooth="yes"/>
      <point x="272" y="220"/>
      <point x="352" y="164" type="qcurve" smooth="yes"/>
      <point x="424" y="112"/>
      <point x="681" y="113"/>
      <point x="826" y="227"/>
      <point x="826" y="364" type="qcurve" smooth="yes"/>
      <point x="826" y="1097" type="line" smooth="no"/>
      <point x="994" y="1097" type="line" smooth="no"/>
      <point x="994" y="366" type="line" smooth="yes"/>
      <point x="994" y="125"/>
      <point x="808" y="30" type="qcurve" smooth="yes"/>
      <point x="700" y="-25"/>
      <point x="551" y="-25" type="qcurve" smooth="no"/>
      <point x="314" y="-26"/>
      <point x="194" y="104" type="qcurve" smooth="yes"/>
      <point x="104" y="200"/>
    </contour>
  </outline>
</glyph>
<glyph name="braceright" format="1">
  <advance width="738"/>
  <unicode hex="007d"/>
  <outline>
    <contour>
      <point x="466" y="632" type="qcurve" smooth="no"/>
      <point x="371" y="662"/>
      <point x="282" y="811"/>
      <point x="282" y="908" type="qcurve" smooth="yes"/>
      <point x="282" y="1173" type="line" smooth="yes"/>
      <point x="282" y="1299"/>
      <point x="203" y="1400"/>
      <point x="95" y="1401" type="qcurve" smooth="no"/>
      <point x="95" y="1539" type="line" smooth="no"/>
      <point x="279" y="1539"/>
      <point x="447" y="1371"/>
      <point x="447" y="1195" type="qcurve" smooth="yes"/>
      <point x="447" y="987" type="line" smooth="yes"/>
      <point x="447" y="806"/>
      <point x="503" y="752" type="qcurve" smooth="yes"/>
      <point x="554" y="702"/>
      <point x="662" y="701" type="qcurve" smooth="no"/>
      <point x="662" y="556" type="line" smooth="no"/>
      <point x="507" y="556"/>
      <point x="469" y="444" type="qcurve" smooth="yes"/>
      <point x="447" y="379"/>
      <point x="447" y="269" type="qcurve" smooth="yes"/>
      <point x="447" y="27" type="line" smooth="yes"/>
      <point x="447" y="-279"/>
      <point x="95" y="-281" type="qcurve" smooth="no"/>
      <point x="95" y="-143" type="line" smooth="no"/>
      <point x="203" y="-142"/>
      <point x="282" y="-44"/>
      <point x="282" y="84" type="qcurve" smooth="yes"/>
      <point x="282" y="349" type="line" smooth="yes"/>
      <point x="282" y="444"/>
      <point x="360" y="561"/>
    </contour>
  </outline>
</glyph>
<glyph name="asciitilde" format="1">
  <advance width="1255"/>
  <unicode hex="007e"/>
  <outline>
    <contour>
      <point x="1137" y="719" type="line" smooth="no"/>
      <point x="1054" y="517"/>
      <point x="868" y="517" type="qcurve" smooth="yes"/>
      <point x="779" y="517"/>
      <point x="568" y="613"/>
      <point x="537" y="626" type="qcurve" smooth="yes"/>
      <point x="449" y="663"/>
      <point x="323" y="663"/>
      <point x="209" y="573"/>
      <point x="172" y="503" type="qcurve" smooth="no"/>
      <point x="120" y="608" type="line" smooth="no"/>
      <point x="158" y="697"/>
      <point x="295" y="806"/>
      <point x="449" y="806"/>
      <point x="557" y="775"/>
      <point x="647" y="735"/>
      <point x="698" y="713"/>
      <point x="717" y="704"/>
      <point x="759" y="687"/>
      <point x="780" y="679"/>
      <point x="814" y="668"/>
      <point x="825" y="666" type="qcurve" smooth="yes"/>
      <point x="854" y="660"/>
      <point x="873" y="659" type="qcurve" smooth="yes"/>
      <point x="932" y="659"/>
      <point x="1044" y="747"/>
      <point x="1081" y="815" type="qcurve" smooth="no"/>
    </contour>
  </outline>
</glyph>
<glyph name="sterling" format="1">
  <advance width="1132"/>
  <unicode hex="00a3"/>
  <outline>
    <contour>
      <point x="696" y="1503" type="qcurve" smooth="yes"/>
      <point x="899" y="1503"/>
      <point x="1053" y="1373" type="qcurve" smooth="no"/>
      <point x="975" y="1253" type="line" smooth="no"/>
      <point x="838" y="1357"/>
      <point x="558" y="1357"/>
      <point x="441" y="1170"/>
      <point x="441" y="993" type="qcurve" smooth="yes"/>
      <point x="441" y="815" type="line" smooth="no"/>
      <point x="851" y="815" type="line" smooth="no"/>
      <point x="851" y="681" type="line" smooth="no"/>
      <point x="441" y="681" type="line" smooth="no"/>
      <point x="441" y="519" type="line" smooth="yes"/>
      <point x="441" y="382"/>
      <point x="392" y="209"/>
      <point x="319" y="153" type="qcurve" smooth="no"/>
      <point x="401" y="158"/>
      <point x="413" y="158" type="qcurve" smooth="yes"/>
      <point x="1068" y="158" type="line" smooth="no"/>
      <point x="1068" y="0" type="line" smooth="no"/>
      <point x="96" y="0" type="line" smooth="no"/>
      <point x="85" y="139" type="line" smooth="no"/>
      <point x="184" y="176"/>
      <point x="269" y="326"/>
      <point x="269" y="449" type="qcurve" smooth="yes"/>
      <point x="269" y="681" type="line" smooth="no"/>
      <point x="83" y="681" type="line" smooth="no"/>
      <point x="83" y="815" type="line" smooth="no"/>
      <point x="269" y="815" type="line" smooth="no"/>
      <point x="269" y="911" type="line" smooth="yes"/>
      <point x="269" y="1316"/>
      <point x="455" y="1440" type="qcurve" smooth="yes"/>
      <point x="550" y="1504"/>
    </contour>
  </outline>
</glyph>
<glyph name="section" format="1">
  <advance width="1017"/>
  <unicode hex="00a7"/>
  <outline>
    <contour>
      <point x="140" y="676"/>
      <point x="141" y="780" type="qcurve" smooth="yes"/>
      <point x="141" y="971"/>
      <point x="307" y="1059" type="qcurve" smooth="no"/>
      <point x="233" y="1106"/>
      <point x="160" y="1222"/>
      <point x="160" y="1307" type="qcurve" smooth="yes"/>
      <point x="160" y="1429"/>
      <point x="336" y="1571"/>
      <point x="497" y="1582" type="qcurve" smooth="no"/>
      <point x="537" y="1586"/>
      <point x="574" y="1586" type="qcurve" smooth="yes"/>
      <point x="628" y="1586"/>
      <point x="672" y="1578" type="qcurve" smooth="yes"/>
      <point x="748" y="1565"/>
      <point x="836" y="1530" type="qcurve" smooth="no"/>
      <point x="822" y="1460"/>
      <point x="810" y="1385" type="qcurve" smooth="no"/>
      <point x="675" y="1446"/>
      <point x="546" y="1446" type="qcurve" smooth="yes"/>
      <point x="318" y="1446"/>
      <point x="318" y="1311" type="qcurve" smooth="yes"/>
      <point x="318" y="1249"/>
      <point x="425" y="1163"/>
      <point x="730" y="1040"/>
      <point x="879" y="895"/>
      <point x="879" y="799" type="qcurve" smooth="yes"/>
      <point x="879" y="615"/>
      <point x="719" y="514" type="qcurve" smooth="no"/>
      <point x="868" y="429"/>
      <point x="868" y="133"/>
      <point x="638" y="-29"/>
      <point x="260" y="-29"/>
      <point x="145" y="30" type="qcurve" smooth="no"/>
      <point x="145" y="185" type="line" smooth="no"/>
      <point x="292" y="109"/>
      <point x="571" y="109"/>
      <point x="709" y="194"/>
      <point x="709" y="266" type="qcurve" smooth="yes"/>
      <point x="709" y="316"/>
      <point x="667" y="361"/>
      <point x="638" y="384"/>
      <point x="604" y="401" type="qcurve" smooth="yes"/>
      <point x="555" y="425"/>
      <point x="464" y="462" type="qcurve" smooth="no"/>
      <point x="292" y="528"/>
    </contour>
    <contour>
      <point x="437" y="995" type="qcurve" smooth="no"/>
      <point x="292" y="932"/>
      <point x="292" y="808" type="qcurve" smooth="yes"/>
      <point x="292" y="743"/>
      <point x="398" y="653"/>
      <point x="527" y="602" type="qcurve" smooth="no"/>
      <point x="584" y="578" type="line" smooth="no"/>
      <point x="727" y="665"/>
      <point x="727" y="768" type="qcurve" smooth="yes"/>
      <point x="727" y="863"/>
      <point x="610" y="923" type="qcurve" smooth="yes"/>
      <point x="542" y="958"/>
    </contour>
  </outline>
</glyph>
<glyph name="copyright" format="1">
  <advance width="1841"/>
  <unicode hex="00a9"/>
  <outline>
    <contour>
      <point x="1657" y="1070" type="qcurve" smooth="yes"/>
      <point x="1701" y="938"/>
      <point x="1701" y="624"/>
      <point x="1614" y="358"/>
      <point x="1464" y="169"/>
      <point x="1362" y="103" type="qcurve" smooth="yes"/>
      <point x="1164" y="-26"/>
      <point x="902" y="-26" type="qcurve" smooth="yes"/>
      <point x="652" y="-26"/>
      <point x="456" y="104" type="qcurve" smooth="yes"/>
      <point x="241" y="246"/>
      <point x="161" y="490" type="qcurve" smooth="yes"/>
      <point x="117" y="624"/>
      <point x="117" y="937"/>
      <point x="204" y="1203"/>
      <point x="353" y="1391"/>
      <point x="453" y="1457" type="qcurve" smooth="yes"/>
      <point x="648" y="1586"/>
      <point x="897" y="1586" type="qcurve" smooth="yes"/>
      <point x="1158" y="1586"/>
      <point x="1360" y="1456" type="qcurve" smooth="yes"/>
      <point x="1576" y="1318"/>
    </contour>
    <contour>
      <point x="744" y="67"/>
      <point x="1067" y="67"/>
      <point x="1331" y="179"/>
      <point x="1499" y="374"/>
      <point x="1588" y="630"/>
      <point x="1588" y="926"/>
      <point x="1498" y="1183"/>
      <point x="1328" y="1380"/>
      <point x="1062" y="1493"/>
      <point x="740" y="1493"/>
      <point x="485" y="1380"/>
      <point x="402" y="1282" type="qcurve" smooth="yes"/>
      <point x="230" y="1080"/>
      <point x="230" y="783" type="qcurve" smooth="yes"/>
      <point x="230" y="482"/>
      <point x="403" y="278" type="qcurve" smooth="yes"/>
      <point x="486" y="180"/>
    </contour>
    <contour>
      <point x="1167" y="1114" type="line" smooth="no"/>
      <point x="1071" y="1182"/>
      <point x="910" y="1182" type="qcurve" smooth="yes"/>
      <point x="740" y="1182"/>
      <point x="652" y="1063" type="qcurve" smooth="yes"/>
      <point x="570" y="952"/>
      <point x="570" y="610"/>
      <point x="752" y="387"/>
      <point x="929" y="387" type="qcurve" smooth="yes"/>
      <point x="997" y="387"/>
      <point x="1148" y="429"/>
      <point x="1191" y="459" type="qcurve" smooth="no"/>
      <point x="1230" y="352" type="line" smooth="no"/>
      <point x="1175" y="317"/>
      <point x="999" y="270"/>
      <point x="909" y="270" type="qcurve" smooth="yes"/>
      <point x="703" y="270"/>
      <point x="434" y="562"/>
      <point x="434" y="1010"/>
      <point x="702" y="1301"/>
      <point x="919" y="1301" type="qcurve" smooth="yes"/>
      <point x="1098" y="1301"/>
      <point x="1227" y="1211" type="qcurve" smooth="no"/>
    </contour>
  </outline>
</glyph>
<glyph name="ordfeminine" format="1">
  <advance width="807"/>
  <unicode hex="00aa"/>
  <outline>
    <contour>
      <point x="134" y="741" type="line" smooth="no"/>
      <point x="679" y="741" type="line" smooth="no"/>
      <point x="679" y="635" type="line" smooth="no"/>
      <point x="134" y="635" type="line" smooth="no"/>
    </contour>
    <contour>
      <point x="369" y="937" type="qcurve" smooth="yes"/>
      <point x="453" y="937"/>
      <point x="539" y="1068"/>
      <point x="543" y="1168" type="qcurve" smooth="no"/>
      <point x="543" y="1195" type="line" smooth="no"/>
      <point x="528" y="1193"/>
      <point x="463" y="1188"/>
      <point x="425" y="1184"/>
      <point x="366" y="1175"/>
      <point x="330" y="1163"/>
      <point x="308" y="1152" type="qcurve" smooth="yes"/>
      <point x="286" y="1142"/>
      <point x="275" y="1128" type="qcurve" smooth="yes"/>
      <point x="247" y="1096"/>
      <point x="247" y="1048" type="qcurve" smooth="yes"/>
      <point x="247" y="937"/>
    </contour>
    <contour>
      <point x="350" y="826" type="qcurve" smooth="yes"/>
      <point x="253" y="826"/>
      <point x="128" y="949"/>
      <point x="128" y="1050" type="qcurve" smooth="yes"/>
      <point x="128" y="1156"/>
      <point x="204" y="1212" type="qcurve" smooth="yes"/>
      <point x="287" y="1273"/>
      <point x="543" y="1289" type="qcurve" smooth="no"/>
      <point x="543" y="1307" type="line" smooth="no"/>
      <point x="541" y="1397"/>
      <point x="485" y="1473"/>
      <point x="345" y="1473"/>
      <point x="247" y="1440"/>
      <point x="198" y="1385" type="qcurve" smooth="no"/>
      <point x="137" y="1463" type="line" smooth="no"/>
      <point x="234" y="1590"/>
      <point x="419" y="1590" type="qcurve" smooth="yes"/>
      <point x="525" y="1590"/>
      <point x="660" y="1462"/>
      <point x="660" y="1330" type="qcurve" smooth="yes"/>
      <point x="658" y="982" type="line" smooth="yes"/>
      <point x="658" y="956"/>
      <point x="664" y="847" type="qcurve" smooth="no"/>
      <point x="546" y="847" type="line" smooth="no"/>
      <point x="543" y="926" type="line" smooth="no"/>
      <point x="476" y="826"/>
    </contour>
  </outline>
</glyph>
<glyph name="registered" format="1">
  <advance width="1824"/>
  <unicode hex="00ae"/>
  <outline>
    <contour>
      <point x="1657" y="1070" type="qcurve" smooth="yes"/>
      <point x="1701" y="938"/>
      <point x="1701" y="624"/>
      <point x="1614" y="358"/>
      <point x="1464" y="169"/>
      <point x="1362" y="103" type="qcurve" smooth="yes"/>
      <point x="1164" y="-26"/>
      <point x="902" y="-26" type="qcurve" smooth="yes"/>
      <point x="652" y="-26"/>
      <point x="456" y="104" type="qcurve" smooth="yes"/>
      <point x="241" y="246"/>
      <point x="161" y="490" type="qcurve" smooth="yes"/>
      <point x="117" y="624"/>
      <point x="117" y="937"/>
      <point x="204" y="1203"/>
      <point x="353" y="1391"/>
      <point x="453" y="1457" type="qcurve" smooth="yes"/>
      <point x="648" y="1586"/>
      <point x="897" y="1586" type="qcurve" smooth="yes"/>
      <point x="1158" y="1586"/>
      <point x="1360" y="1456" type="qcurve" smooth="yes"/>
      <point x="1576" y="1318"/>
    </contour>
    <contour>
      <point x="744" y="67"/>
      <point x="1067" y="67"/>
      <point x="1331" y="179"/>
      <point x="1499" y="374"/>
      <point x="1588" y="630"/>
      <point x="1588" y="926"/>
      <point x="1498" y="1183"/>
      <point x="1328" y="1380"/>
      <point x="1062" y="1493"/>
      <point x="740" y="1493"/>
      <point x="485" y="1380"/>
      <point x="402" y="1282" type="qcurve" smooth="yes"/>
      <point x="230" y="1080"/>
      <point x="230" y="783" type="qcurve" smooth="yes"/>
      <point x="230" y="482"/>
      <point x="403" y="278" type="qcurve" smooth="yes"/>
      <point x="486" y="180"/>
    </contour>
    <contour>
      <point x="857" y="843" type="line" smooth="yes"/>
      <point x="1005" y="843"/>
      <point x="1141" y="908"/>
      <point x="1141" y="1093"/>
      <point x="1014" y="1149"/>
      <point x="847" y="1149" type="qcurve" smooth="yes"/>
      <point x="731" y="1149" type="line" smooth="no"/>
      <point x="731" y="843" type="line" smooth="no"/>
    </contour>
    <contour>
      <point x="914" y="716" type="qcurve" smooth="no"/>
      <point x="731" y="716" type="line" smooth="no"/>
      <point x="731" y="301" type="line" smooth="no"/>
      <point x="599" y="301" type="line" smooth="no"/>
      <point x="599" y="1277" type="line" smooth="no"/>
      <point x="857" y="1277" type="line" smooth="yes"/>
      <point x="1300" y="1277"/>
      <point x="1300" y="1007" type="qcurve" smooth="yes"/>
      <point x="1300" y="899"/>
      <point x="1178" y="752"/>
      <point x="1040" y="735" type="qcurve" smooth="no"/>
      <point x="1100" y="688"/>
      <point x="1161" y="580" type="qcurve" smooth="yes"/>
      <point x="1185" y="538"/>
      <point x="1279" y="368"/>
      <point x="1320" y="301" type="qcurve" smooth="no"/>
      <point x="1171" y="301" type="line" smooth="no"/>
      <point x="1046" y="525" type="line" smooth="no"/>
      <point x="963" y="678"/>
    </contour>
  </outline>
</glyph>
<glyph name="uni00B2" format="1">
  <advance width="763"/>
  <unicode hex="00b2"/>
  <outline>
    <contour>
      <point x="615" y="650" type="line" smooth="no"/>
      <point x="134" y="650" type="line" smooth="no"/>
      <point x="134" y="769" type="line" smooth="no"/>
      <point x="209" y="854"/>
      <point x="267" y="919"/>
      <point x="379" y="1052"/>
      <point x="424" y="1116"/>
      <point x="454" y="1162" type="qcurve" smooth="yes"/>
      <point x="504" y="1241"/>
      <point x="504" y="1358"/>
      <point x="438" y="1424"/>
      <point x="380" y="1424" type="qcurve" smooth="yes"/>
      <point x="273" y="1424"/>
      <point x="217" y="1282" type="qcurve" smooth="no"/>
      <point x="143" y="1367" type="line" smooth="no"/>
      <point x="173" y="1454"/>
      <point x="302" y="1551"/>
      <point x="487" y="1551"/>
      <point x="617" y="1415"/>
      <point x="617" y="1305" type="qcurve" smooth="yes"/>
      <point x="618" y="1157"/>
      <point x="486" y="990" type="qcurve" smooth="yes"/>
      <point x="420" y="906"/>
      <point x="297" y="778" type="qcurve" smooth="no"/>
      <point x="615" y="778" type="line" smooth="no"/>
    </contour>
  </outline>
</glyph>
<glyph name="ordmasculine" format="1">
  <advance width="899"/>
  <unicode hex="00ba"/>
  <outline>
    <contour>
      <point x="256" y="1320"/>
      <point x="256" y="1090"/>
      <point x="358" y="941"/>
      <point x="543" y="941"/>
      <point x="645" y="1092"/>
      <point x="645" y="1319"/>
      <point x="541" y="1473"/>
      <point x="360" y="1473"/>
    </contour>
    <contour>
      <point x="599" y="1590"/>
      <point x="769" y="1372"/>
      <point x="769" y="1041"/>
      <point x="600" y="826"/>
      <point x="299" y="826"/>
      <point x="131" y="1041"/>
      <point x="131" y="1374"/>
      <point x="303" y="1590"/>
    </contour>
  </outline>
</glyph>
<glyph name="germandbls" format="1">
  <advance width="1222"/>
  <unicode hex="00df"/>
  <outline>
    <contour>
      <point x="771" y="148" type="line" smooth="yes"/>
      <point x="868" y="148"/>
      <point x="977" y="253"/>
      <point x="977" y="343" type="qcurve" smooth="yes"/>
      <point x="977" y="443"/>
      <point x="877" y="522" type="qcurve" smooth="yes"/>
      <point x="797" y="585"/>
      <point x="619" y="686"/>
      <point x="591" y="705" type="qcurve" smooth="yes"/>
      <point x="509" y="761"/>
      <point x="509" y="880"/>
      <point x="574" y="934" type="qcurve" smooth="yes"/>
      <point x="600" y="955"/>
      <point x="698" y="1018"/>
      <point x="753" y="1058"/>
      <point x="799" y="1134"/>
      <point x="799" y="1182" type="qcurve" smooth="yes"/>
      <point x="799" y="1269"/>
      <point x="665" y="1373"/>
      <point x="568" y="1373" type="qcurve" smooth="yes"/>
      <point x="286" y="1373"/>
      <point x="286" y="1056" type="qcurve" smooth="yes"/>
      <point x="286" y="0" type="line" smooth="no"/>
      <point x="118" y="0" type="line" smooth="no"/>
      <point x="118" y="1046" type="line" smooth="yes"/>
      <point x="118" y="1275"/>
      <point x="342" y="1525"/>
      <point x="758" y="1525"/>
      <point x="988" y="1342"/>
      <point x="988" y="1182" type="qcurve" smooth="yes"/>
      <point x="988" y="1099"/>
      <point x="934" y="1018"/>
      <point x="899" y="977"/>
      <point x="833" y="929"/>
      <point x="811" y="915" type="qcurve" smooth="yes"/>
      <point x="781" y="896"/>
      <point x="683" y="838" type="qcurve" smooth="no"/>
      <point x="737" y="800"/>
      <point x="940" y="680"/>
      <point x="1048" y="600"/>
      <point x="1084" y="560" type="qcurve" smooth="yes"/>
      <point x="1166" y="468"/>
      <point x="1166" y="361.5" type="qcurve" smooth="yes"/>
      <point x="1166" y="254"/>
      <point x="1138" y="186" type="qcurve" smooth="yes"/>
      <point x="1108" y="118"/>
      <point x="1056" y="78" type="qcurve" smooth="yes"/>
      <point x="954" y="0"/>
      <point x="786" y="0" type="qcurve" smooth="yes"/>
      <point x="443" y="0" type="line" smooth="no"/>
      <point x="459" y="148" type="line" smooth="no"/>
    </contour>
  </outline>
</glyph>
<glyph name="ae" format="1">
  <advance width="1671"/>
  <unicode hex="00e6"/>
  <outline>
    <contour>
      <point x="902" y="615" type="qcurve" smooth="no"/>
      <point x="1418" y="644" type="line" smooth="no"/>
      <point x="1418" y="654" type="line" smooth="no"/>
      <point x="1416" y="825"/>
      <point x="1313" y="984"/>
      <point x="1203" y="984" type="qcurve" smooth="yes"/>
      <point x="1060" y="984"/>
      <point x="911" y="781"/>
    </contour>
    <contour>
      <point x="430" y="113" type="qcurve" smooth="yes"/>
      <point x="524" y="112"/>
      <point x="732" y="184" type="qcurve" smooth="yes"/>
      <point x="788" y="204"/>
      <point x="801" y="208" type="qcurve" smooth="no"/>
      <point x="734" y="330"/>
      <point x="725" y="499" type="qcurve" smooth="no"/>
      <point x="370" y="482"/>
      <point x="294" y="392" type="qcurve" smooth="yes"/>
      <point x="262" y="354"/>
      <point x="262" y="291" type="qcurve" smooth="yes"/>
      <point x="262" y="113"/>
    </contour>
    <contour>
      <point x="529" y="-26"/>
      <point x="275" y="-26"/>
      <point x="94" y="131"/>
      <point x="94" y="300" type="qcurve" smooth="yes"/>
      <point x="94" y="460"/>
      <point x="224" y="528" type="qcurve" smooth="yes"/>
      <point x="307" y="572"/>
      <point x="396" y="586" type="qcurve" smooth="yes"/>
      <point x="518" y="605"/>
      <point x="665" y="613" type="qcurve" smooth="yes"/>
      <point x="728" y="616" type="line" smooth="no"/>
      <point x="728" y="781" type="line" smooth="yes"/>
      <point x="728" y="883"/>
      <point x="642" y="976"/>
      <point x="541" y="976" type="qcurve" smooth="yes"/>
      <point x="337" y="976"/>
      <point x="182" y="894" type="qcurve" smooth="no"/>
      <point x="146" y="1032" type="line" smooth="no"/>
      <point x="211" y="1069"/>
      <point x="428" y="1124"/>
      <point x="658" y="1124"/>
      <point x="829" y="1026"/>
      <point x="851" y="932" type="qcurve" smooth="no"/>
      <point x="904" y="1027"/>
      <point x="1093" y="1124"/>
      <point x="1305" y="1124"/>
      <point x="1453" y="1051"/>
      <point x="1496" y="988" type="qcurve" smooth="yes"/>
      <point x="1580" y="865"/>
      <point x="1580" y="684" type="qcurve" smooth="yes"/>
      <point x="1580" y="606"/>
      <point x="1507" y="540"/>
      <point x="1393" y="534" type="qcurve" smooth="yes"/>
      <point x="896" y="509" type="line" smooth="no"/>
      <point x="909" y="322"/>
      <point x="1056" y="119"/>
      <point x="1208" y="119" type="qcurve" smooth="yes"/>
      <point x="1296" y="119"/>
      <point x="1468" y="185"/>
      <point x="1531" y="229" type="qcurve" smooth="no"/>
      <point x="1583" y="108" type="line" smooth="no"/>
      <point x="1429" y="-25"/>
      <point x="995" y="-25"/>
      <point x="870" y="112" type="qcurve" smooth="no"/>
      <point x="775" y="53"/>
    </contour>
  </outline>
</glyph>
<glyph name="eth" format="1">
  <advance width="1204"/>
  <unicode hex="00f0"/>
  <outline>
    <contour>
      <point x="603" y="833" type="qcurve" smooth="yes"/>
      <point x="449" y="833"/>
      <point x="269" y="633"/>
      <point x="269" y="485" type="qcurve" smooth="yes"/>
      <point x="269" y="272"/>
      <point x="421" y="168" type="qcurve" smooth="yes"/>
      <point x="500" y="114"/>
      <point x="609" y="114" type="qcurve" smooth="yes"/>
      <point x="766" y="114"/>
      <point x="945" y="316"/>
      <point x="945" y="472" type="qcurve" smooth="yes"/>
      <point x="945" y="614"/>
      <point x="858" y="720" type="qcurve" smooth="yes"/>
      <point x="816" y="771"/>
      <point x="683" y="833"/>
    </contour>
    <contour>
      <point x="569" y="972" type="qcurve" smooth="yes"/>
      <point x="715" y="972"/>
      <point x="844" y="877" type="qcurve" smooth="no"/>
      <point x="761" y="1035"/>
      <point x="541" y="1257" type="qcurve" smooth="no"/>
      <point x="269" y="1145" type="line" smooth="no"/>
      <point x="226" y="1277" type="line" smooth="no"/>
      <point x="446" y="1364" type="line" smooth="no"/>
      <point x="210" y="1588" type="line" smooth="no"/>
      <point x="433" y="1588" type="line" smooth="no"/>
      <point x="579" y="1429" type="line" smooth="no"/>
      <point x="868" y="1542" type="line" smooth="no"/>
      <point x="914" y="1413" type="line" smooth="no"/>
      <point x="672" y="1320" type="line" smooth="no"/>
      <point x="920" y="1050"/>
      <point x="1015" y="884" type="qcurve" smooth="no"/>
      <point x="1117" y="692"/>
      <point x="1117" y="492" type="qcurve" smooth="yes"/>
      <point x="1117" y="267"/>
      <point x="988" y="124" type="qcurve" smooth="yes"/>
      <point x="854" y="-25"/>
      <point x="603" y="-25" type="qcurve" smooth="yes"/>
      <point x="482" y="-25"/>
      <point x="383" y="16" type="qcurve" smooth="yes"/>
      <point x="284" y="58"/>
      <point x="220" y="128" type="qcurve" smooth="yes"/>
      <point x="87" y="275"/>
      <point x="87" y="705"/>
      <point x="352" y="972"/>
    </contour>
  </outline>
</glyph>
<glyph name="thorn" format="1">
  <advance width="1205"/>
  <unicode hex="00fe"/>
  <outline>
    <contour>
      <point x="292" y="162" type="qcurve" smooth="no"/>
      <point x="292" y="-459" type="line" smooth="no"/>
      <point x="124" y="-459" type="line" smooth="no"/>
      <point x="124" y="1510" type="line" smooth="no"/>
      <point x="292" y="1510" type="line" smooth="no"/>
      <point x="292" y="933" type="line" smooth="no"/>
      <point x="421" y="1124"/>
      <point x="643" y="1124" type="qcurve" smooth="no"/>
      <point x="778" y="1123"/>
      <point x="987" y="974"/>
      <point x="1099" y="719"/>
      <point x="1099" y="560" type="qcurve" smooth="yes"/>
      <point x="1099" y="268"/>
      <point x="937" y="97" type="qcurve" smooth="yes"/>
      <point x="822" y="-25"/>
      <point x="643" y="-25" type="qcurve" smooth="no"/>
      <point x="402" y="-25"/>
    </contour>
    <contour>
      <point x="537" y="113"/>
      <point x="691" y="113"/>
      <point x="799" y="168"/>
      <point x="865" y="256"/>
      <point x="887" y="315" type="qcurve" smooth="yes"/>
      <point x="926" y="420"/>
      <point x="926" y="629"/>
      <point x="897" y="773"/>
      <point x="833" y="906"/>
      <point x="713" y="986"/>
      <point x="522" y="986"/>
      <point x="443" y="924" type="qcurve" smooth="yes"/>
      <point x="290" y="805"/>
      <point x="290" y="551" type="qcurve" smooth="yes"/>
      <point x="290" y="368"/>
      <point x="367" y="246" type="qcurve" smooth="yes"/>
      <point x="406" y="184"/>
    </contour>
  </outline>
</glyph>
<glyph name="Dcroat" format="1">
  <advance width="1522"/>
  <unicode hex="0110"/>
  <outline>
    <contour>
      <point x="324" y="697" type="line" smooth="no"/>
      <point x="324" y="155" type="line" smooth="no"/>
      <point x="639" y="155" type="line" smooth="yes"/>
      <point x="918" y="155"/>
      <point x="1223" y="448"/>
      <point x="1223" y="734" type="qcurve" smooth="yes"/>
      <point x="1223" y="1132"/>
      <point x="957" y="1263" type="qcurve" smooth="yes"/>
      <point x="799" y="1341"/>
      <point x="540" y="1341" type="qcurve" smooth="yes"/>
      <point x="324" y="1341" type="line" smooth="no"/>
      <point x="324" y="832" type="line" smooth="no"/>
      <point x="566" y="832" type="line" smooth="no"/>
      <point x="566" y="697" type="line" smooth="no"/>
    </contour>
    <contour>
      <point x="29" y="697" type="line" smooth="no"/>
      <point x="29" y="832" type="line" smooth="no"/>
      <point x="147" y="832" type="line" smooth="no"/>
      <point x="147" y="1496" type="line" smooth="no"/>
      <point x="519" y="1496" type="line" smooth="yes"/>
      <point x="1030" y="1496"/>
      <point x="1247" y="1254" type="qcurve" smooth="yes"/>
      <point x="1412" y="1071"/>
      <point x="1412" y="738" type="qcurve" smooth="yes"/>
      <point x="1412" y="370"/>
      <point x="1193" y="182" type="qcurve" smooth="yes"/>
      <point x="981" y="0"/>
      <point x="621" y="0" type="qcurve" smooth="yes"/>
      <point x="147" y="0" type="line" smooth="no"/>
      <point x="147" y="697" type="line" smooth="no"/>
    </contour>
  </outline>
</glyph>
<glyph name="dcroat" format="1">
  <advance width="1168"/>
  <unicode hex="0111"/>
  <outline>
    <contour>
      <point x="541" y="-24" type="qcurve" smooth="yes"/>
      <point x="323" y="-24"/>
      <point x="70" y="299"/>
      <point x="70" y="561" type="qcurve" smooth="yes"/>
      <point x="70" y="716"/>
      <point x="185" y="973"/>
      <point x="399" y="1125"/>
      <point x="646" y="1125"/>
      <point x="839" y="1023"/>
      <point x="881" y="937" type="qcurve" smooth="no"/>
      <point x="881" y="1199" type="line" smooth="no"/>
      <point x="658" y="1199" type="line" smooth="no"/>
      <point x="658" y="1341" type="line" smooth="no"/>
      <point x="881" y="1341" type="line" smooth="no"/>
      <point x="881" y="1490" type="line" smooth="no"/>
      <point x="1049" y="1510" type="line" smooth="no"/>
      <point x="1049" y="1341" type="line" smooth="no"/>
      <point x="1166" y="1341" type="line" smooth="no"/>
      <point x="1166" y="1199" type="line" smooth="no"/>
      <point x="1049" y="1199" type="line" smooth="no"/>
      <point x="1049" y="0" type="line" smooth="no"/>
      <point x="900" y="0" type="line" smooth="no"/>
      <point x="879" y="172" type="line" smooth="no"/>
      <point x="830" y="84"/>
      <point x="651" y="-24"/>
    </contour>
    <contour>
      <point x="882" y="364"/>
      <point x="882" y="551" type="qcurve" smooth="yes"/>
      <point x="882" y="734"/>
      <point x="804" y="852" type="qcurve" smooth="yes"/>
      <point x="721" y="977"/>
      <point x="550" y="977" type="qcurve" smooth="yes"/>
      <point x="470" y="977"/>
      <point x="408" y="940" type="qcurve" smooth="yes"/>
      <point x="346" y="902"/>
      <point x="312" y="840" type="qcurve" smooth="yes"/>
      <point x="243" y="717"/>
      <point x="243" y="556" type="qcurve" smooth="yes"/>
      <point x="243" y="382"/>
      <point x="312" y="258" type="qcurve" smooth="yes"/>
      <point x="387" y="124"/>
      <point x="713" y="124"/>
    </contour>
  </outline>
</glyph>
<glyph name="gcommaaccent" format="1">
  <advance width="1187"/>
  <unicode hex="0123"/>
  <outline>
    <contour>
      <point x="578" y="143" type="qcurve" smooth="yes"/>
      <point x="654" y="143"/>
      <point x="782" y="203"/>
      <point x="818" y="256" type="qcurve" smooth="yes"/>
      <point x="889" y="361"/>
      <point x="889" y="516" type="qcurve" smooth="yes"/>
      <point x="889" y="597" type="line" smooth="yes"/>
      <point x="890" y="762"/>
      <point x="816" y="866" type="qcurve" smooth="yes"/>
      <point x="736" y="980"/>
      <point x="570" y="979" type="qcurve" smooth="yes"/>
      <point x="378" y="980"/>
      <point x="290" y="786" type="qcurve" smooth="yes"/>
      <point x="242" y="681"/>
      <point x="242" y="554" type="qcurve" smooth="yes"/>
      <point x="242" y="358"/>
      <point x="355" y="234" type="qcurve" smooth="yes"/>
      <point x="437" y="144"/>
    </contour>
    <contour>
      <point x="556" y="1120" type="qcurve" smooth="yes"/>
      <point x="763" y="1120"/>
      <point x="889" y="951" type="qcurve" smooth="no"/>
      <point x="889" y="1097" type="line" smooth="no"/>
      <point x="1052" y="1097" type="line" smooth="no"/>
      <point x="1052" y="79" type="line" smooth="yes"/>
      <point x="1052" y="-156"/>
      <point x="995" y="-270" type="qcurve" smooth="yes"/>
      <point x="938" y="-386"/>
      <point x="832" y="-438" type="qcurve" smooth="yes"/>
      <point x="702" y="-502"/>
      <point x="497" y="-502" type="qcurve" smooth="yes"/>
      <point x="312" y="-502" type="line" smooth="no"/>
      <point x="297" y="-351" type="line" smooth="no"/>
      <point x="501" y="-351" type="line" smooth="yes"/>
      <point x="675" y="-352"/>
      <point x="754" y="-300" type="qcurve" smooth="yes"/>
      <point x="838" y="-246"/>
      <point x="862" y="-152" type="qcurve" smooth="yes"/>
      <point x="884" y="-63"/>
      <point x="884" y="83" type="qcurve" smooth="yes"/>
      <point x="884" y="180" type="line" smooth="no"/>
      <point x="824" y="94"/>
      <point x="666" y="1"/>
      <point x="450" y="1"/>
      <point x="291" y="66"/>
      <point x="182" y="174"/>
      <point x="144" y="245" type="qcurve" smooth="yes"/>
      <point x="70" y="381"/>
      <point x="70" y="665"/>
      <point x="129" y="869"/>
      <point x="245" y="1029"/>
      <point x="434" y="1120"/>
    </contour>
    <contour>
      <point x="793" y="1749" type="line" smooth="no"/>
      <point x="683" y="1250" type="line" smooth="no"/>
      <point x="488" y="1250" type="line" smooth="no"/>
      <point x="653" y="1749" type="line" smooth="no"/>
    </contour>
  </outline>
</glyph>
<glyph name="hbar" format="1">
  <advance width="1112"/>
  <unicode hex="0127"/>
  <outline>
    <contour>
      <point x="282" y="0" type="line" smooth="no"/>
      <point x="114" y="0" type="line" smooth="no"/>
      <point x="114" y="1270" type="line" smooth="no"/>
      <point x="21" y="1270" type="line" smooth="no"/>
      <point x="21" y="1386" type="line" smooth="no"/>
      <point x="114" y="1386" type="line" smooth="no"/>
      <point x="114" y="1490" type="line" smooth="no"/>
      <point x="282" y="1510" type="line" smooth="no"/>
      <point x="282" y="1386" type="line" smooth="no"/>
      <point x="558" y="1386" type="line" smooth="no"/>
      <point x="558" y="1270" type="line" smooth="no"/>
      <point x="282" y="1270" type="line" smooth="no"/>
      <point x="282" y="949" type="line" smooth="no"/>
      <point x="427" y="1124"/>
      <point x="674" y="1124" type="qcurve" smooth="yes"/>
      <point x="842" y="1124"/>
      <point x="1007" y="885"/>
      <point x="1007" y="664" type="qcurve" smooth="yes"/>
      <point x="1007" y="0" type="line" smooth="no"/>
      <point x="839" y="0" type="line" smooth="no"/>
      <point x="839" y="617" type="line" smooth="yes"/>
      <point x="840" y="858"/>
      <point x="778" y="924" type="qcurve" smooth="yes"/>
      <point x="727" y="980"/>
      <point x="498" y="980"/>
      <point x="304" y="833"/>
      <point x="282" y="748" type="qcurve" smooth="no"/>
    </contour>
  </outline>
</glyph>
<glyph name="IJ" format="1">
  <advance width="1090"/>
  <unicode hex="0132"/>
  <outline>
    <contour>
      <point x="766" y="181" type="qcurve" smooth="yes"/>
      <point x="766" y="1496" type="line" smooth="no"/>
      <point x="943" y="1496" type="line" smooth="no"/>
      <point x="943" y="241" type="line" smooth="yes"/>
      <point x="944" y="10"/>
      <point x="902" y="-68" type="qcurve" smooth="yes"/>
      <point x="858" y="-150"/>
      <point x="786" y="-178" type="qcurve" smooth="yes"/>
      <point x="697" y="-214"/>
      <point x="556" y="-214" type="qcurve" smooth="yes"/>
      <point x="521" y="-214" type="line" smooth="no"/>
      <point x="500" y="-72" type="line" smooth="no"/>
      <point x="574" y="-72" type="line" smooth="yes"/>
      <point x="720" y="-72"/>
      <point x="750" y="29" type="qcurve" smooth="yes"/>
      <point x="766" y="82"/>
    </contour>
    <contour>
      <point x="355" y="0" type="line" smooth="no"/>
      <point x="182" y="0" type="line" smooth="no"/>
      <point x="182" y="1479" type="line" smooth="no"/>
      <point x="355" y="1479" type="line" smooth="no"/>
    </contour>
  </outline>
</glyph>
<glyph name="ij" format="1">
  <advance width="911"/>
  <unicode hex="0133"/>
  <outline>
    <contour>
      <point x="796" y="1097" type="line" smooth="no"/>
      <point x="796" y="-139" type="line" smooth="yes"/>
      <point x="796" y="-245"/>
      <point x="769" y="-375"/>
      <point x="694" y="-466"/>
      <point x="566" y="-502"/>
      <point x="463" y="-502" type="qcurve" smooth="yes"/>
      <point x="411" y="-502" type="line" smooth="no"/>
      <point x="389" y="-351" type="line" smooth="no"/>
      <point x="441" y="-351" type="line" smooth="yes"/>
      <point x="559" y="-351"/>
      <point x="591" y="-312" type="qcurve" smooth="yes"/>
      <point x="618" y="-279"/>
      <point x="622" y="-244" type="qcurve" smooth="yes"/>
      <point x="628" y="-192"/>
      <point x="628" y="-121" type="qcurve" smooth="yes"/>
      <point x="628" y="1097" type="line" smooth="no"/>
    </contour>
    <contour>
      <point x="796" y="1496" type="line" smooth="no"/>
      <point x="796" y="1298" type="line" smooth="no"/>
      <point x="628" y="1298" type="line" smooth="no"/>
      <point x="628" y="1496" type="line" smooth="no"/>
    </contour>
    <contour>
      <point x="327" y="1097" type="line" smooth="no"/>
      <point x="327" y="0" type="line" smooth="no"/>
      <point x="159" y="0" type="line" smooth="no"/>
      <point x="159" y="1097" type="line" smooth="no"/>
    </contour>
    <contour>
      <point x="327" y="1496" type="line" smooth="no"/>
      <point x="327" y="1298" type="line" smooth="no"/>
      <point x="159" y="1298" type="line" smooth="no"/>
      <point x="159" y="1496" type="line" smooth="no"/>
    </contour>
  </outline>
</glyph>
<glyph name="Lcaron" format="1">
  <advance width="1021"/>
  <unicode hex="013d"/>
  <outline>
    <contour>
      <point x="709" y="1053" type="line" smooth="no"/>
      <point x="802" y="1525" type="line" smooth="no"/>
      <point x="959" y="1525" type="line" smooth="no"/>
      <point x="825" y="1053" type="line" smooth="no"/>
    </contour>
    <contour>
      <point x="174" y="0" type="line" smooth="no"/>
      <point x="174" y="1479" type="line" smooth="no"/>
      <point x="348" y="1479" type="line" smooth="no"/>
      <point x="348" y="154" type="line" smooth="no"/>
      <point x="999" y="154" type="line" smooth="no"/>
      <point x="993" y="0" type="line" smooth="no"/>
    </contour>
  </outline>
</glyph>
<glyph name="lslash" format="1">
  <advance width="589"/>
  <unicode hex="0142"/>
  <outline>
    <contour>
      <point x="487" y="985" type="line" smooth="no"/>
      <point x="487" y="839" type="line" smooth="no"/>
      <point x="311" y="703" type="line" smooth="no"/>
      <point x="311" y="431" type="line" smooth="yes"/>
      <point x="311" y="268"/>
      <point x="324" y="208"/>
      <point x="331" y="185.5" type="qcurve" smooth="yes"/>
      <point x="338" y="164"/>
      <point x="358" y="144"/>
      <point x="374" y="134" type="qcurve" smooth="yes"/>
      <point x="399" y="118"/>
      <point x="474" y="118"/>
      <point x="596" y="128" type="qcurve" smooth="no"/>
      <point x="611" y="-8" type="line" smooth="no"/>
      <point x="481" y="-21"/>
      <point x="382" y="-21"/>
      <point x="305" y="-10"/>
      <point x="245" y="20"/>
      <point x="203" y="56"/>
      <point x="188" y="88.5" type="qcurve" smooth="yes"/>
      <point x="172" y="121"/>
      <point x="164" y="154" type="qcurve" smooth="yes"/>
      <point x="156" y="188"/>
      <point x="151" y="240" type="qcurve" smooth="yes"/>
      <point x="143" y="324"/>
      <point x="143" y="468" type="qcurve" smooth="yes"/>
      <point x="143" y="573" type="line" smooth="no"/>
      <point x="31" y="486" type="line" smooth="no"/>
      <point x="31" y="631" type="line" smooth="no"/>
      <point x="143" y="718" type="line" smooth="no"/>
      <point x="143" y="1490" type="line" smooth="no"/>
      <point x="311" y="1510" type="line" smooth="no"/>
      <point x="311" y="848" type="line" smooth="no"/>
    </contour>
  </outline>
</glyph>
<glyph name="OE" format="1">
  <advance width="1980"/>
  <unicode hex="0152"/>
  <outline>
    <contour>
      <point x="602" y="1524"/>
      <point x="1022" y="1524"/>
      <point x="1148" y="1413" type="qcurve" smooth="no"/>
      <point x="1148" y="1495" type="line" smooth="no"/>
      <point x="1874" y="1495" type="line" smooth="no"/>
      <point x="1857" y="1341" type="line" smooth="no"/>
      <point x="1325" y="1341" type="line" smooth="no"/>
      <point x="1325" y="845" type="line" smooth="no"/>
      <point x="1821" y="845" type="line" smooth="no"/>
      <point x="1821" y="692" type="line" smooth="no"/>
      <point x="1325" y="692" type="line" smooth="no"/>
      <point x="1325" y="156" type="line" smooth="no"/>
      <point x="1898" y="156" type="line" smooth="no"/>
      <point x="1883" y="0" type="line" smooth="no"/>
      <point x="1148" y="0" type="line" smooth="no"/>
      <point x="1148" y="82" type="line" smooth="no"/>
      <point x="1114" y="46"/>
      <point x="908" y="-23"/>
      <point x="823" y="-23" type="qcurve" smooth="yes"/>
      <point x="590" y="-23"/>
      <point x="426" y="78" type="qcurve" smooth="yes"/>
      <point x="101" y="278"/>
      <point x="101" y="771" type="qcurve" smooth="no"/>
      <point x="106" y="987"/>
      <point x="286" y="1330"/>
    </contour>
    <contour>
      <point x="1148" y="1259" type="line" smooth="no"/>
      <point x="1009" y="1373"/>
      <point x="815" y="1373" type="qcurve" smooth="yes"/>
      <point x="577" y="1373"/>
      <point x="297" y="1040"/>
      <point x="291" y="773" type="qcurve" smooth="no"/>
      <point x="291" y="284"/>
      <point x="619" y="164" type="qcurve" smooth="yes"/>
      <point x="715" y="129"/>
      <point x="813" y="128" type="qcurve" smooth="yes"/>
      <point x="907" y="128"/>
      <point x="1004" y="160" type="qcurve" smooth="yes"/>
      <point x="1098" y="192"/>
      <point x="1148" y="222" type="qcurve" smooth="no"/>
    </contour>
  </outline>
</glyph>
<glyph name="oe" format="1">
  <advance width="1916"/>
  <unicode hex="0153"/>
  <outline>
    <contour>
      <point x="1099" y="634" type="qcurve" smooth="no"/>
      <point x="1672" y="634" type="line" smooth="no"/>
      <point x="1672" y="647" type="line" smooth="no"/>
      <point x="1669" y="813"/>
      <point x="1526" y="988"/>
      <point x="1279" y="988"/>
      <point x="1113" y="796"/>
    </contour>
    <contour>
      <point x="503" y="113"/>
      <point x="676" y="113"/>
      <point x="742" y="149" type="qcurve" smooth="yes"/>
      <point x="808" y="184"/>
      <point x="845" y="246" type="qcurve" smooth="yes"/>
      <point x="921" y="369"/>
      <point x="921" y="547" type="qcurve" smooth="yes"/>
      <point x="921" y="732"/>
      <point x="847" y="854" type="qcurve" smooth="yes"/>
      <point x="766" y="986"/>
      <point x="587" y="986" type="qcurve" smooth="yes"/>
      <point x="391" y="986"/>
      <point x="304" y="796" type="qcurve" smooth="yes"/>
      <point x="255" y="689"/>
      <point x="255" y="458"/>
      <point x="293" y="308"/>
      <point x="371" y="184"/>
    </contour>
    <contour>
      <point x="1834" y="594" type="qcurve" smooth="no"/>
      <point x="1832" y="519" type="line" smooth="no"/>
      <point x="1093" y="519" type="line" smooth="no"/>
      <point x="1093" y="337"/>
      <point x="1283" y="119"/>
      <point x="1430" y="119" type="qcurve" smooth="yes"/>
      <point x="1535" y="119"/>
      <point x="1692" y="179"/>
      <point x="1766" y="229" type="qcurve" smooth="no"/>
      <point x="1818" y="107" type="line" smooth="no"/>
      <point x="1664" y="-25"/>
      <point x="1425" y="-25" type="qcurve" smooth="yes"/>
      <point x="1281" y="-25"/>
      <point x="1063" y="97"/>
      <point x="1000" y="211" type="qcurve" smooth="no"/>
      <point x="937" y="101"/>
      <point x="728" y="-25"/>
      <point x="426" y="-25"/>
      <point x="310" y="53" type="qcurve" smooth="yes"/>
      <point x="82" y="206"/>
      <point x="82" y="547" type="qcurve" smooth="yes"/>
      <point x="82" y="789"/>
      <point x="211" y="953" type="qcurve" smooth="yes"/>
      <point x="273" y="1032"/>
      <point x="469" y="1124"/>
      <point x="590" y="1124" type="qcurve" smooth="yes"/>
      <point x="878" y="1124"/>
      <point x="1005" y="889" type="qcurve" smooth="no"/>
      <point x="1066" y="995"/>
      <point x="1284" y="1120"/>
      <point x="1414" y="1124" type="qcurve" smooth="no"/>
      <point x="1616" y="1124"/>
      <point x="1834" y="841"/>
    </contour>
  </outline>
</glyph>
<glyph name="uni01C4" format="1">
  <advance width="2686"/>
  <unicode hex="01c4"/>
  <outline>
    <contour>
      <point x="1588" y="0" type="line" smooth="no"/>
      <point x="1588" y="136" type="line" smooth="no"/>
      <point x="2392" y="1325" type="line" smooth="no"/>
      <point x="1617" y="1325" type="line" smooth="no"/>
      <point x="1617" y="1479" type="line" smooth="no"/>
      <point x="2613" y="1479" type="line" smooth="no"/>
      <point x="2613" y="1350" type="line" smooth="no"/>
      <point x="1804" y="154" type="line" smooth="no"/>
      <point x="2620" y="154" type="line" smooth="no"/>
      <point x="2614" y="0" type="line" smooth="no"/>
    </contour>
    <contour>
      <point x="1832" y="2035" type="line" smooth="no"/>
      <point x="1963" y="2035" type="line" smooth="no"/>
      <point x="2124" y="1723" type="line" smooth="no"/>
      <point x="2285" y="2035" type="line" smooth="no"/>
      <point x="2419" y="2035" type="line" smooth="no"/>
      <point x="2232" y="1647" type="line" smooth="no"/>
      <point x="2019" y="1647" type="line" smooth="no"/>
    </contour>
    <contour>
      <point x="1205" y="446"/>
      <point x="1205" y="1046"/>
      <point x="885" y="1328"/>
      <point x="579" y="1328" type="qcurve" smooth="yes"/>
      <point x="347" y="1328" type="line" smooth="no"/>
      <point x="347" y="151" type="line" smooth="no"/>
      <point x="608" y="151" type="line" smooth="yes"/>
      <point x="900" y="151"/>
    </contour>
    <contour>
      <point x="980" y="0"/>
      <point x="613" y="0" type="qcurve" smooth="yes"/>
      <point x="174" y="0" type="line" smooth="no"/>
      <point x="174" y="1479" type="line" smooth="no"/>
      <point x="584" y="1479" type="line" smooth="yes"/>
      <point x="954" y="1480"/>
      <point x="1168" y="1304" type="qcurve" smooth="yes"/>
      <point x="1390" y="1122"/>
      <point x="1390" y="380"/>
    </contour>
  </outline>
</glyph>
<glyph name="uni01C5" format="1">
  <advance width="2414"/>
  <unicode hex="01c5"/>
  <outline>
    <contour>
      <point x="2351" y="0" type="line" smooth="no"/>
      <point x="1585" y="0" type="line" smooth="no"/>
      <point x="1585" y="126" type="line" smooth="no"/>
      <point x="2146" y="965" type="line" smooth="no"/>
      <point x="1600" y="965" type="line" smooth="no"/>
      <point x="1600" y="1097" type="line" smooth="no"/>
      <point x="2333" y="1097" type="line" smooth="no"/>
      <point x="2333" y="965" type="line" smooth="no"/>
      <point x="1773" y="132" type="line" smooth="no"/>
      <point x="2351" y="132" type="line" smooth="no"/>
    </contour>
    <contour>
      <point x="1658" y="1634" type="line" smooth="no"/>
      <point x="1789" y="1634" type="line" smooth="no"/>
      <point x="1950" y="1322" type="line" smooth="no"/>
      <point x="2111" y="1634" type="line" smooth="no"/>
      <point x="2245" y="1634" type="line" smooth="no"/>
      <point x="2058" y="1246" type="line" smooth="no"/>
      <point x="1845" y="1246" type="line" smooth="no"/>
    </contour>
    <contour>
      <point x="1205" y="446"/>
      <point x="1205" y="1046"/>
      <point x="885" y="1328"/>
      <point x="579" y="1328" type="qcurve" smooth="yes"/>
      <point x="347" y="1328" type="line" smooth="no"/>
      <point x="347" y="151" type="line" smooth="no"/>
      <point x="608" y="151" type="line" smooth="yes"/>
      <point x="900" y="151"/>
    </contour>
    <contour>
      <point x="980" y="0"/>
      <point x="613" y="0" type="qcurve" smooth="yes"/>
      <point x="174" y="0" type="line" smooth="no"/>
      <point x="174" y="1479" type="line" smooth="no"/>
      <point x="584" y="1479" type="line" smooth="yes"/>
      <point x="954" y="1480"/>
      <point x="1168" y="1304" type="qcurve" smooth="yes"/>
      <point x="1390" y="1122"/>
      <point x="1390" y="380"/>
    </contour>
  </outline>
</glyph>
<glyph name="uni01C7" format="1">
  <advance width="1571"/>
  <unicode hex="01c7"/>
  <outline>
    <contour>
      <point x="1247" y="181" type="qcurve" smooth="yes"/>
      <point x="1247" y="1496" type="line" smooth="no"/>
      <point x="1424" y="1496" type="line" smooth="no"/>
      <point x="1424" y="241" type="line" smooth="yes"/>
      <point x="1424" y="10"/>
      <point x="1382" y="-68" type="qcurve" smooth="yes"/>
      <point x="1338" y="-150"/>
      <point x="1268" y="-178" type="qcurve" smooth="yes"/>
      <point x="1179" y="-213"/>
      <point x="1037" y="-214" type="qcurve" smooth="yes"/>
      <point x="1002" y="-214" type="line" smooth="no"/>
      <point x="981" y="-72" type="line" smooth="no"/>
      <point x="1055" y="-72" type="line" smooth="yes"/>
      <point x="1202" y="-72"/>
      <point x="1232" y="29" type="qcurve" smooth="yes"/>
      <point x="1248" y="82"/>
    </contour>
    <contour>
      <point x="174" y="0" type="line" smooth="no"/>
      <point x="174" y="1479" type="line" smooth="no"/>
      <point x="348" y="1479" type="line" smooth="no"/>
      <point x="348" y="154" type="line" smooth="no"/>
      <point x="999" y="154" type="line" smooth="no"/>
      <point x="993" y="0" type="line" smooth="no"/>
    </contour>
  </outline>
</glyph>
<glyph name="uni01C8" format="1">
  <advance width="1466"/>
  <unicode hex="01c8"/>
  <outline>
    <contour>
      <point x="1351" y="1097" type="line" smooth="no"/>
      <point x="1351" y="-139" type="line" smooth="yes"/>
      <point x="1351" y="-245"/>
      <point x="1324" y="-375"/>
      <point x="1249" y="-466"/>
      <point x="1121" y="-502"/>
      <point x="1018" y="-502" type="qcurve" smooth="yes"/>
      <point x="966" y="-502" type="line" smooth="no"/>
      <point x="944" y="-351" type="line" smooth="no"/>
      <point x="996" y="-351" type="line" smooth="yes"/>
      <point x="1114" y="-351"/>
      <point x="1146" y="-312" type="qcurve" smooth="yes"/>
      <point x="1173" y="-279"/>
      <point x="1177" y="-244" type="qcurve" smooth="yes"/>
      <point x="1183" y="-192"/>
      <point x="1183" y="-121" type="qcurve" smooth="yes"/>
      <point x="1183" y="1097" type="line" smooth="no"/>
    </contour>
    <contour>
      <point x="1351" y="1496" type="line" smooth="no"/>
      <point x="1351" y="1298" type="line" smooth="no"/>
      <point x="1183" y="1298" type="line" smooth="no"/>
      <point x="1183" y="1496" type="line" smooth="no"/>
    </contour>
    <contour>
      <point x="174" y="0" type="line" smooth="no"/>
      <point x="174" y="1479" type="line" smooth="no"/>
      <point x="348" y="1479" type="line" smooth="no"/>
      <point x="348" y="154" type="line" smooth="no"/>
      <point x="999" y="154" type="line" smooth="no"/>
      <point x="993" y="0" type="line" smooth="no"/>
    </contour>
  </outline>
</glyph>
<glyph name="uni01C9" format="1">
  <advance width="1014"/>
  <unicode hex="01c9"/>
  <outline>
    <contour>
      <point x="899" y="1097" type="line" smooth="no"/>
      <point x="899" y="-139" type="line" smooth="yes"/>
      <point x="899" y="-245"/>
      <point x="872" y="-375"/>
      <point x="797" y="-466"/>
      <point x="669" y="-502"/>
      <point x="566" y="-502" type="qcurve" smooth="yes"/>
      <point x="514" y="-502" type="line" smooth="no"/>
      <point x="492" y="-351" type="line" smooth="no"/>
      <point x="544" y="-351" type="line" smooth="yes"/>
      <point x="662" y="-351"/>
      <point x="694" y="-312" type="qcurve" smooth="yes"/>
      <point x="721" y="-279"/>
      <point x="725" y="-244" type="qcurve" smooth="yes"/>
      <point x="731" y="-192"/>
      <point x="731" y="-121" type="qcurve" smooth="yes"/>
      <point x="731" y="1097" type="line" smooth="no"/>
    </contour>
    <contour>
      <point x="899" y="1496" type="line" smooth="no"/>
      <point x="899" y="1298" type="line" smooth="no"/>
      <point x="731" y="1298" type="line" smooth="no"/>
      <point x="731" y="1496" type="line" smooth="no"/>
    </contour>
    <contour>
      <point x="438" y="-20" type="qcurve" smooth="yes"/>
      <point x="278" y="-20"/>
      <point x="145" y="152"/>
      <point x="145" y="365" type="qcurve" smooth="yes"/>
      <point x="145" y="1523" type="line" smooth="no"/>
      <point x="311" y="1533" type="line" smooth="no"/>
      <point x="311" y="431" type="line" smooth="yes"/>
      <point x="311" y="232"/>
      <point x="336" y="182" type="qcurve" smooth="yes"/>
      <point x="360" y="134"/>
      <point x="410" y="124" type="qcurve" smooth="yes"/>
      <point x="436" y="118"/>
      <point x="508" y="118"/>
      <point x="602" y="130" type="qcurve" smooth="no"/>
      <point x="611" y="-3" type="line" smooth="no"/>
      <point x="508" y="-20"/>
    </contour>
  </outline>
</glyph>
<glyph name="uni01CA" format="1">
  <advance width="2066"/>
  <unicode hex="01ca"/>
  <outline>
    <contour>
      <point x="1742" y="181" type="qcurve" smooth="yes"/>
      <point x="1742" y="1496" type="line" smooth="no"/>
      <point x="1919" y="1496" type="line" smooth="no"/>
      <point x="1919" y="241" type="line" smooth="yes"/>
      <point x="1920" y="10"/>
      <point x="1878" y="-68" type="qcurve" smooth="yes"/>
      <point x="1834" y="-150"/>
      <point x="1762" y="-178" type="qcurve" smooth="yes"/>
      <point x="1673" y="-213"/>
      <point x="1532" y="-214" type="qcurve" smooth="yes"/>
      <point x="1497" y="-214" type="line" smooth="no"/>
      <point x="1476" y="-72" type="line" smooth="no"/>
      <point x="1550" y="-72" type="line" smooth="yes"/>
      <point x="1696" y="-72"/>
      <point x="1726" y="29" type="qcurve" smooth="yes"/>
      <point x="1742" y="82"/>
    </contour>
    <contour>
      <point x="1342" y="0" type="line" smooth="no"/>
      <point x="1146" y="0" type="line" smooth="no"/>
      <point x="378" y="1164" type="line" smooth="no"/>
      <point x="328" y="1233" type="line" smooth="no"/>
      <point x="336" y="1023"/>
      <point x="336" y="858" type="qcurve" smooth="yes"/>
      <point x="336" y="0" type="line" smooth="no"/>
      <point x="174" y="0" type="line" smooth="no"/>
      <point x="174" y="1479" type="line" smooth="no"/>
      <point x="367" y="1479" type="line" smooth="no"/>
      <point x="1137" y="315" type="line" smooth="no"/>
      <point x="1188" y="246" type="line" smooth="no"/>
      <point x="1181" y="565"/>
      <point x="1181" y="615" type="qcurve" smooth="yes"/>
      <point x="1181" y="1479" type="line" smooth="no"/>
      <point x="1342" y="1479" type="line" smooth="no"/>
    </contour>
  </outline>
</glyph>
<glyph name="uni01CB" format="1">
  <advance width="1961"/>
  <unicode hex="01cb"/>
  <outline>
    <contour>
      <point x="1846" y="1097" type="line" smooth="no"/>
      <point x="1846" y="-139" type="line" smooth="yes"/>
      <point x="1846" y="-245"/>
      <point x="1819" y="-375"/>
      <point x="1744" y="-466"/>
      <point x="1616" y="-502"/>
      <point x="1513" y="-502" type="qcurve" smooth="yes"/>
      <point x="1461" y="-502" type="line" smooth="no"/>
      <point x="1439" y="-351" type="line" smooth="no"/>
      <point x="1491" y="-351" type="line" smooth="yes"/>
      <point x="1609" y="-351"/>
      <point x="1641" y="-312" type="qcurve" smooth="yes"/>
      <point x="1668" y="-279"/>
      <point x="1672" y="-244" type="qcurve" smooth="yes"/>
      <point x="1678" y="-192"/>
      <point x="1678" y="-121" type="qcurve" smooth="yes"/>
      <point x="1678" y="1097" type="line" smooth="no"/>
    </contour>
    <contour>
      <point x="1846" y="1496" type="line" smooth="no"/>
      <point x="1846" y="1298" type="line" smooth="no"/>
      <point x="1678" y="1298" type="line" smooth="no"/>
      <point x="1678" y="1496" type="line" smooth="no"/>
    </contour>
    <contour>
      <point x="1342" y="0" type="line" smooth="no"/>
      <point x="1146" y="0" type="line" smooth="no"/>
      <point x="378" y="1164" type="line" smooth="no"/>
      <point x="328" y="1233" type="line" smooth="no"/>
      <point x="336" y="1023"/>
      <point x="336" y="858" type="qcurve" smooth="yes"/>
      <point x="336" y="0" type="line" smooth="no"/>
      <point x="174" y="0" type="line" smooth="no"/>
      <point x="174" y="1479" type="line" smooth="no"/>
      <point x="367" y="1479" type="line" smooth="no"/>
      <point x="1137" y="315" type="line" smooth="no"/>
      <point x="1188" y="246" type="line" smooth="no"/>
      <point x="1181" y="565"/>
      <point x="1181" y="615" type="qcurve" smooth="yes"/>
      <point x="1181" y="1479" type="line" smooth="no"/>
      <point x="1342" y="1479" type="line" smooth="no"/>
    </contour>
  </outline>
</glyph>
<glyph name="uni01CC" format="1">
  <advance width="1629"/>
  <unicode hex="01cc"/>
  <outline>
    <contour>
      <point x="1514" y="1097" type="line" smooth="no"/>
      <point x="1514" y="-139" type="line" smooth="yes"/>
      <point x="1514" y="-245"/>
      <point x="1487" y="-375"/>
      <point x="1412" y="-466"/>
      <point x="1284" y="-502"/>
      <point x="1181" y="-502" type="qcurve" smooth="yes"/>
      <point x="1129" y="-502" type="line" smooth="no"/>
      <point x="1107" y="-351" type="line" smooth="no"/>
      <point x="1159" y="-351" type="line" smooth="yes"/>
      <point x="1277" y="-351"/>
      <point x="1309" y="-312" type="qcurve" smooth="yes"/>
      <point x="1336" y="-279"/>
      <point x="1340" y="-244" type="qcurve" smooth="yes"/>
      <point x="1346" y="-192"/>
      <point x="1346" y="-121" type="qcurve" smooth="yes"/>
      <point x="1346" y="1097" type="line" smooth="no"/>
    </contour>
    <contour>
      <point x="1514" y="1496" type="line" smooth="no"/>
      <point x="1514" y="1298" type="line" smooth="no"/>
      <point x="1346" y="1298" type="line" smooth="no"/>
      <point x="1346" y="1496" type="line" smooth="no"/>
    </contour>
    <contour>
      <point x="143" y="0" type="line" smooth="no"/>
      <point x="143" y="1097" type="line" smooth="no"/>
      <point x="283" y="1097" type="line" smooth="no"/>
      <point x="304" y="940" type="line" smooth="no"/>
      <point x="369" y="1021"/>
      <point x="564" y="1120"/>
      <point x="677" y="1120" type="qcurve" smooth="yes"/>
      <point x="867" y="1120"/>
      <point x="1049" y="907"/>
      <point x="1049" y="686" type="qcurve" smooth="yes"/>
      <point x="1049" y="0" type="line" smooth="no"/>
      <point x="882" y="0" type="line" smooth="no"/>
      <point x="882" y="660"/>
      <point x="881" y="707" type="qcurve" smooth="yes"/>
      <point x="877" y="847"/>
      <point x="772" y="977"/>
      <point x="520" y="977"/>
      <point x="348" y="853"/>
      <point x="322" y="754" type="qcurve" smooth="no"/>
      <point x="312" y="687"/>
      <point x="312" y="600" type="qcurve" smooth="yes"/>
      <point x="312" y="0" type="line" smooth="no"/>
    </contour>
  </outline>
</glyph>
<glyph name="uni01F1" format="1">
  <advance width="2686"/>
  <unicode hex="01f1"/>
  <outline>
    <contour>
      <point x="1588" y="0" type="line" smooth="no"/>
      <point x="1588" y="136" type="line" smooth="no"/>
      <point x="2392" y="1325" type="line" smooth="no"/>
      <point x="1617" y="1325" type="line" smooth="no"/>
      <point x="1617" y="1479" type="line" smooth="no"/>
      <point x="2613" y="1479" type="line" smooth="no"/>
      <point x="2613" y="1350" type="line" smooth="no"/>
      <point x="1804" y="154" type="line" smooth="no"/>
      <point x="2620" y="154" type="line" smooth="no"/>
      <point x="2614" y="0" type="line" smooth="no"/>
    </contour>
    <contour>
      <point x="1205" y="446"/>
      <point x="1205" y="1046"/>
      <point x="885" y="1328"/>
      <point x="579" y="1328" type="qcurve" smooth="yes"/>
      <point x="347" y="1328" type="line" smooth="no"/>
      <point x="347" y="151" type="line" smooth="no"/>
      <point x="608" y="151" type="line" smooth="yes"/>
      <point x="900" y="151"/>
    </contour>
    <contour>
      <point x="980" y="0"/>
      <point x="613" y="0" type="qcurve" smooth="yes"/>
      <point x="174" y="0" type="line" smooth="no"/>
      <point x="174" y="1479" type="line" smooth="no"/>
      <point x="584" y="1479" type="line" smooth="yes"/>
      <point x="954" y="1480"/>
      <point x="1168" y="1304" type="qcurve" smooth="yes"/>
      <point x="1390" y="1122"/>
      <point x="1390" y="380"/>
    </contour>
  </outline>
</glyph>
<glyph name="uni0237" format="1">
  <advance width="444"/>
  <unicode hex="0237"/>
  <outline>
    <contour>
      <point x="330" y="1098" type="line" smooth="no"/>
      <point x="330" y="-139" type="line" smooth="yes"/>
      <point x="330" y="-245"/>
      <point x="303" y="-375"/>
      <point x="228" y="-466"/>
      <point x="100" y="-502"/>
      <point x="-3" y="-502" type="qcurve" smooth="yes"/>
      <point x="-55" y="-502" type="line" smooth="no"/>
      <point x="-77" y="-351" type="line" smooth="no"/>
      <point x="-25" y="-351" type="line" smooth="yes"/>
      <point x="93" y="-351"/>
      <point x="125" y="-312" type="qcurve" smooth="yes"/>
      <point x="152" y="-279"/>
      <point x="156" y="-244" type="qcurve" smooth="yes"/>
      <point x="162" y="-192"/>
      <point x="162" y="-121" type="qcurve" smooth="yes"/>
      <point x="162" y="1098" type="line" smooth="no"/>
    </contour>
  </outline>
</glyph>
<glyph name="ring" format="1">
  <advance width="433"/>
  <unicode hex="02da"/>
  <outline>
    <contour>
      <point x="282" y="197"/>
      <point x="354" y="281"/>
      <point x="354" y="397"/>
      <point x="282" y="481"/>
      <point x="153" y="481"/>
      <point x="80" y="396"/>
      <point x="80" y="281"/>
      <point x="152" y="197"/>
    </contour>
    <contour>
      <point x="-17" y="231"/>
      <point x="-17" y="446"/>
      <point x="122" y="566"/>
      <point x="312" y="566"/>
      <point x="450" y="446"/>
      <point x="450" y="233"/>
      <point x="310" y="112"/>
      <point x="120" y="112"/>
    </contour>
  </outline>
</glyph>
<glyph name="tilde" format="1">
  <advance width="433"/>
  <unicode hex="02dc"/>
  <outline>
    <contour>
      <point x="312" y="125"/>
      <point x="189" y="184"/>
      <point x="87" y="242"/>
      <point x="17" y="242"/>
      <point x="-49" y="174"/>
      <point x="-71" y="122" type="qcurve" smooth="no"/>
      <point x="-123" y="227" type="line" smooth="no"/>
      <point x="-95" y="299"/>
      <point x="7" y="385"/>
      <point x="78" y="385" type="qcurve" smooth="yes"/>
      <point x="120" y="386"/>
      <point x="328" y="258"/>
      <point x="396" y="258"/>
      <point x="465" y="329"/>
      <point x="488" y="384" type="qcurve" smooth="no"/>
      <point x="556" y="273" type="line" smooth="no"/>
      <point x="529" y="209"/>
      <point x="424" y="125"/>
    </contour>
  </outline>
</glyph>
<glyph name="bullet" format="1">
  <advance width="867"/>
  <unicode hex="2022"/>
  <outline>
    <contour>
      <point x="731" y="889"/>
      <point x="731" y="615"/>
      <point x="553" y="415"/>
      <point x="309" y="415"/>
      <point x="137" y="611"/>
      <point x="137" y="884"/>
      <point x="317" y="1086"/>
      <point x="557" y="1086"/>
    </contour>
  </outline>
</glyph>
<glyph name="ellipsis" format="1">
  <advance width="1482"/>
  <unicode hex="2026"/>
  <outline>
    <contour>
      <point x="324" y="-12"/>
      <point x="199" y="-12"/>
      <point x="128" y="67"/>
      <point x="128" y="174"/>
      <point x="198" y="252"/>
      <point x="324" y="252"/>
      <point x="394" y="174"/>
      <point x="394" y="66"/>
    </contour>
    <contour>
      <point x="818" y="-12"/>
      <point x="693" y="-12"/>
      <point x="622" y="67"/>
      <point x="622" y="174"/>
      <point x="692" y="252"/>
      <point x="818" y="252"/>
      <point x="888" y="174"/>
      <point x="888" y="66"/>
    </contour>
    <contour>
      <point x="1312" y="-12"/>
      <point x="1187" y="-12"/>
      <point x="1116" y="67"/>
      <point x="1116" y="174"/>
      <point x="1186" y="252"/>
      <point x="1312" y="252"/>
      <point x="1382" y="174"/>
      <point x="1382" y="66"/>
    </contour>
  </outline>
</glyph>
<glyph name="perthousand" format="1">
  <advance width="2303"/>
  <unicode hex="2030"/>
  <outline>
    <contour>
      <point x="395" y="-22" type="line" smooth="no"/>
      <point x="259" y="-22" type="line" smooth="no"/>
      <point x="1115" y="1547" type="line" smooth="no"/>
      <point x="1272" y="1547" type="line" smooth="no"/>
    </contour>
    <contour>
      <point x="487" y="1438"/>
      <point x="323" y="1438"/>
      <point x="237" y="1291"/>
      <point x="237" y="1064"/>
      <point x="324" y="919"/>
      <point x="488" y="919"/>
      <point x="574" y="1067"/>
      <point x="574" y="1294"/>
    </contour>
    <contour>
      <point x="1204" y="610"/>
      <point x="1010" y="610"/>
      <point x="908" y="465"/>
      <point x="908" y="239"/>
      <point x="1011" y="93"/>
      <point x="1202" y="93"/>
      <point x="1305" y="244"/>
      <point x="1305" y="469"/>
    </contour>
    <contour>
      <point x="1264" y="-30"/>
      <point x="943" y="-30"/>
      <point x="777" y="176"/>
      <point x="777" y="525"/>
      <point x="945" y="735"/>
      <point x="1270" y="735"/>
      <point x="1434" y="532"/>
      <point x="1434" y="183"/>
    </contour>
    <contour>
      <point x="542" y="796"/>
      <point x="264" y="796"/>
      <point x="108" y="1004"/>
      <point x="108" y="1349"/>
      <point x="265" y="1559"/>
      <point x="549" y="1559"/>
      <point x="702" y="1355"/>
      <point x="702" y="1009"/>
    </contour>
    <contour>
      <point x="2036" y="-30"/>
      <point x="1717" y="-30"/>
      <point x="1550" y="176"/>
      <point x="1550" y="525"/>
      <point x="1720" y="735"/>
      <point x="2043" y="735"/>
      <point x="2207" y="533"/>
      <point x="2207" y="183"/>
    </contour>
    <contour>
      <point x="1975" y="610"/>
      <point x="1782" y="610"/>
      <point x="1677" y="465"/>
      <point x="1677" y="238"/>
      <point x="1782" y="93"/>
      <point x="1976" y="93"/>
      <point x="2081" y="243"/>
      <point x="2081" y="466"/>
    </contour>
  </outline>
</glyph>
<glyph name="Euro" format="1">
  <advance width="1210"/>
  <unicode hex="20ac"/>
  <outline>
    <contour>
      <point x="407" y="845" type="line" smooth="no"/>
      <point x="403" y="803"/>
      <point x="403" y="683"/>
      <point x="402" y="683" type="qcurve" smooth="yes"/>
      <point x="951" y="683" type="line" smooth="no"/>
      <point x="941" y="580" type="line" smooth="no"/>
      <point x="419" y="580" type="line" smooth="no"/>
      <point x="441" y="396"/>
      <point x="531" y="270" type="qcurve" smooth="yes"/>
      <point x="675" y="152"/>
      <point x="788" y="135" type="qcurve" smooth="no"/>
      <point x="948" y="135"/>
      <point x="1088" y="244" type="qcurve" smooth="no"/>
      <point x="1087" y="69" type="line" smooth="no"/>
      <point x="962" y="-22"/>
      <point x="781" y="-22" type="qcurve" smooth="yes"/>
      <point x="496" y="-22"/>
      <point x="340" y="242" type="qcurve" smooth="yes"/>
      <point x="253" y="389"/>
      <point x="227" y="580" type="qcurve" smooth="no"/>
      <point x="106" y="580" type="line" smooth="no"/>
      <point x="123" y="683" type="line" smooth="no"/>
      <point x="215" y="683" type="line" smooth="no"/>
      <point x="213" y="715"/>
      <point x="213" y="752"/>
      <point x="218" y="845" type="qcurve" smooth="no"/>
      <point x="105" y="845" type="line" smooth="no"/>
      <point x="124" y="957" type="line" smooth="no"/>
      <point x="234" y="957" type="line" smooth="no"/>
      <point x="272" y="1210"/>
      <point x="410" y="1364" type="qcurve" smooth="yes"/>
      <point x="553" y="1524"/>
      <point x="796" y="1524" type="qcurve" smooth="yes"/>
      <point x="977" y="1524"/>
      <point x="1088" y="1429" type="qcurve" smooth="no"/>
      <point x="1087" y="1249" type="line" smooth="no"/>
      <point x="977" y="1369"/>
      <point x="653" y="1369"/>
      <point x="457" y="1150"/>
      <point x="425" y="957" type="qcurve" smooth="no"/>
      <point x="983" y="957" type="line" smooth="no"/>
      <point x="966" y="845" type="line" smooth="no"/>
    </contour>
  </outline>
</glyph>
<glyph name="integral" format="1">
  <advance width="698"/>
  <unicode hex="222b"/>
  <outline>
    <contour>
      <point x="277" y="-50" type="qcurve" smooth="yes"/>
      <point x="277" y="1351" type="line" smooth="yes"/>
      <point x="277" y="1756"/>
      <point x="540" y="1756" type="qcurve" smooth="yes"/>
      <point x="582" y="1756"/>
      <point x="661" y="1733" type="qcurve" smooth="no"/>
      <point x="662" y="1594" type="line" smooth="no"/>
      <point x="629" y="1610"/>
      <point x="481" y="1610"/>
      <point x="421" y="1501"/>
      <point x="421" y="1379" type="qcurve" smooth="yes"/>
      <point x="421" y="-25" type="line" smooth="yes"/>
      <point x="420" y="-321"/>
      <point x="286" y="-399" type="qcurve" smooth="yes"/>
      <point x="234" y="-429"/>
      <point x="109" y="-429"/>
      <point x="41" y="-409" type="qcurve" smooth="no"/>
      <point x="40" y="-270" type="line" smooth="no"/>
      <point x="69" y="-284"/>
      <point x="218" y="-284"/>
      <point x="277" y="-173"/>
    </contour>
  </outline>
</glyph>
<glyph name="approxequal" format="1">
  <advance width="1314"/>
  <unicode hex="2248"/>
  <outline>
    <contour>
      <point x="898" y="411" type="qcurve" smooth="yes"/>
      <point x="1017" y="411"/>
      <point x="1080" y="589" type="qcurve" smooth="no"/>
      <point x="1178" y="558" type="line" smooth="no"/>
      <point x="1152" y="426"/>
      <point x="1018" y="282"/>
      <point x="786" y="282"/>
      <point x="498" y="459"/>
      <point x="427" y="459" type="qcurve" smooth="yes"/>
      <point x="292" y="459"/>
      <point x="239" y="280" type="qcurve" smooth="no"/>
      <point x="138" y="312" type="line" smooth="no"/>
      <point x="163" y="444"/>
      <point x="311" y="589"/>
      <point x="428" y="589" type="qcurve" smooth="yes"/>
      <point x="532" y="590"/>
      <point x="720" y="482" type="qcurve" smooth="yes"/>
      <point x="744" y="468"/>
      <point x="764" y="457"/>
      <point x="803" y="436"/>
      <point x="827" y="428"/>
      <point x="843" y="422" type="qcurve" smooth="yes"/>
      <point x="874" y="412"/>
    </contour>
    <contour>
      <point x="896" y="810" type="qcurve" smooth="yes"/>
      <point x="1017" y="810"/>
      <point x="1077" y="988" type="qcurve" smooth="no"/>
      <point x="1176" y="959" type="line" smooth="no"/>
      <point x="1123" y="684"/>
      <point x="892" y="684" type="qcurve" smooth="yes"/>
      <point x="779" y="684"/>
      <point x="498" y="860"/>
      <point x="424" y="860" type="qcurve" smooth="yes"/>
      <point x="286" y="860"/>
      <point x="239" y="684" type="qcurve" smooth="no"/>
      <point x="136" y="712" type="line" smooth="no"/>
      <point x="160" y="842"/>
      <point x="310" y="988"/>
      <point x="427" y="988" type="qcurve" smooth="yes"/>
      <point x="531" y="988"/>
      <point x="689" y="893" type="qcurve" smooth="yes"/>
      <point x="827" y="810"/>
    </contour>
  </outline>
</glyph>
<glyph name="uniFB01" format="1">
  <advance width="1088"/>
  <unicode hex="fb01"/>
  <outline>
    <contour>
      <point x="181" y="0" type="line" smooth="no"/>
      <point x="181" y="980" type="line" smooth="no"/>
      <point x="20" y="980" type="line" smooth="no"/>
      <point x="20" y="1098" type="line" smooth="no"/>
      <point x="181" y="1098" type="line" smooth="no"/>
      <point x="181" y="1138" type="line" smooth="no"/>
      <point x="184" y="1259"/>
      <point x="221" y="1410"/>
      <point x="309" y="1502"/>
      <point x="437" y="1536"/>
      <point x="539" y="1536" type="qcurve" smooth="yes"/>
      <point x="612" y="1536" type="line" smooth="no"/>
      <point x="632" y="1408" type="line" smooth="no"/>
      <point x="538" y="1408" type="line" smooth="yes"/>
      <point x="426" y="1408"/>
      <point x="392" y="1365" type="qcurve" smooth="yes"/>
      <point x="364" y="1330"/>
      <point x="358" y="1288" type="qcurve" smooth="yes"/>
      <point x="349" y="1225"/>
      <point x="349" y="1136" type="qcurve" smooth="yes"/>
      <point x="349" y="1098" type="line" smooth="no"/>
      <point x="956" y="1098" type="line" smooth="no"/>
      <point x="956" y="0" type="line" smooth="no"/>
      <point x="788" y="0" type="line" smooth="no"/>
      <point x="788" y="980" type="line" smooth="no"/>
      <point x="349" y="980" type="line" smooth="no"/>
      <point x="349" y="0" type="line" smooth="no"/>
    </contour>
    <contour>
      <point x="788" y="1496" type="line" smooth="no"/>
      <point x="956" y="1496" type="line" smooth="no"/>
      <point x="956" y="1298" type="line" smooth="no"/>
      <point x="788" y="1298" type="line" smooth="no"/>
    </contour>
  </outline>
</glyph>
<glyph name="uniFB02" format="1">
  <advance width="1237"/>
  <unicode hex="fb02"/>
  <outline>
    <contour>
      <point x="350" y="1135" type="qcurve" smooth="yes"/>
      <point x="349" y="1098" type="line" smooth="no"/>
      <point x="598" y="1098" type="line" smooth="no"/>
      <point x="598" y="980" type="line" smooth="no"/>
      <point x="349" y="980" type="line" smooth="no"/>
      <point x="349" y="0" type="line" smooth="no"/>
      <point x="181" y="0" type="line" smooth="no"/>
      <point x="181" y="980" type="line" smooth="no"/>
      <point x="20" y="980" type="line" smooth="no"/>
      <point x="20" y="1098" type="line" smooth="no"/>
      <point x="181" y="1098" type="line" smooth="no"/>
      <point x="181" y="1128" type="line" smooth="no"/>
      <point x="187" y="1348"/>
      <point x="284" y="1433" type="qcurve" smooth="yes"/>
      <point x="374" y="1512"/>
      <point x="550" y="1512" type="qcurve" smooth="yes"/>
      <point x="590" y="1512"/>
      <point x="976" y="1490" type="qcurve" smooth="no"/>
      <point x="976" y="450" type="line" smooth="yes"/>
      <point x="976" y="251"/>
      <point x="1024" y="128"/>
      <point x="1134" y="128" type="qcurve" smooth="yes"/>
      <point x="1155" y="128"/>
      <point x="1207" y="132" type="qcurve" smooth="no"/>
      <point x="1218" y="1" type="line" smooth="no"/>
      <point x="1103" y="-12"/>
      <point x="1053" y="-12"/>
      <point x="987" y="-5"/>
      <point x="933" y="15"/>
      <point x="892" y="38"/>
      <point x="860" y="81"/>
      <point x="838" y="121"/>
      <point x="823" y="188"/>
      <point x="814" y="248"/>
      <point x="812" y="296" type="qcurve" smooth="yes"/>
      <point x="808" y="362"/>
      <point x="808" y="487" type="qcurve" smooth="yes"/>
      <point x="808" y="1376" type="line" smooth="no"/>
      <point x="705" y="1383"/>
      <point x="445" y="1383"/>
      <point x="354" y="1275"/>
    </contour>
  </outline>
</glyph>
<glyph name="fj" format="1">
  <advance width="1196"/>
  <outline>
    <contour>
      <point x="1081" y="1496" type="line" smooth="no"/>
      <point x="1081" y="1298" type="line" smooth="no"/>
      <point x="913" y="1298" type="line" smooth="no"/>
      <point x="913" y="1496" type="line" smooth="no"/>
    </contour>
    <contour>
      <point x="1081" y="1097" type="line" smooth="no"/>
      <point x="1081" y="-139" type="line" smooth="yes"/>
      <point x="1081" y="-245"/>
      <point x="1054" y="-375"/>
      <point x="979" y="-466"/>
      <point x="851" y="-502"/>
      <point x="748" y="-502" type="qcurve" smooth="yes"/>
      <point x="696" y="-502" type="line" smooth="no"/>
      <point x="674" y="-351" type="line" smooth="no"/>
      <point x="726" y="-351" type="line" smooth="yes"/>
      <point x="844" y="-351"/>
      <point x="876" y="-312" type="qcurve" smooth="yes"/>
      <point x="903" y="-279"/>
      <point x="907" y="-244" type="qcurve" smooth="yes"/>
      <point x="913" y="-192"/>
      <point x="913" y="-121" type="qcurve" smooth="yes"/>
      <point x="913" y="973" type="line" smooth="no"/>
      <point x="380" y="973" type="line" smooth="no"/>
      <point x="380" y="0" type="line" smooth="no"/>
      <point x="212" y="0" type="line" smooth="no"/>
      <point x="212" y="973" type="line" smooth="no"/>
      <point x="34" y="973" type="line" smooth="no"/>
      <point x="48" y="1083" type="line" smooth="no"/>
      <point x="212" y="1097" type="line" smooth="no"/>
      <point x="212" y="1146" type="line" smooth="no"/>
      <point x="214" y="1358"/>
      <point x="370" y="1550"/>
      <point x="543" y="1550" type="qcurve" smooth="yes"/>
      <point x="603" y="1550"/>
      <point x="706" y="1534" type="qcurve" smooth="no"/>
      <point x="696" y="1403" type="line" smooth="no"/>
      <point x="607" y="1416"/>
      <point x="561" y="1416" type="qcurve" smooth="yes"/>
      <point x="457" y="1416"/>
      <point x="380" y="1296"/>
      <point x="380" y="1148" type="qcurve" smooth="yes"/>
      <point x="380" y="1097" type="line" smooth="no"/>
    </contour>
  </outline>
</glyph>
<glyph name="foundryicon" format="1">
  <advance width="2048"/>
  <outline>
    <contour>
      <point x="911" y="1638" type="line" smooth="no"/>
      <point x="1082" y="1113" type="line" smooth="no"/>
      <point x="1634" y="1113" type="line" smooth="no"/>
      <point x="1187" y="788" type="line" smooth="no"/>
      <point x="1358" y="263" type="line" smooth="no"/>
      <point x="911" y="588" type="line" smooth="no"/>
      <point x="464" y="263" type="line" smooth="no"/>
      <point x="635" y="788" type="line" smooth="no"/>
      <point x="188" y="1113" type="line" smooth="no"/>
      <point x="741" y="1113" type="line" smooth="no"/>
    </contour>
  </outline>
</glyph>
